<svg xmlns="http://www.w3.org/2000/svg" width="811" height="52" viewBox="0 0 811 52"><defs><clipPath id="a"><path d="M811,0 L811,52 L0,52 L0,0 L811,0 Z"/></clipPath><clipPath id="b"><path d="M14.9320777,0.00418756792 C23.2006983,-0.18813463 30.169629,6.26761783 30.5331622,14.5197051 C30.9012971,22.8762492 24.3484967,29.9762619 15.9427509,30.3422419 C13.5376032,30.4398366 11.1324555,29.9762619 8.94818873,28.9881158 L2.97213297,31.1229993 C2.82487903,31.1717967 2.66535392,31.2083947 2.51809998,31.2083947 C2.12542281,31.2327934 1.74501679,31.0986007 1.43823775,30.8302153 C1.02101825,30.4642353 0.836950826,29.8908666 0.959662444,29.3540958 L2.35857488,23.2788273 C0.93512012,21.0463491 0.125223446,18.4844888 0.0147829905,15.8372333 C-0.353351861,7.48068915 6.1994485,0.380676495 14.6051943,0.0146964606 L14.6174655,0.0146964606 Z M28.9869958,14.5807018 C28.6679456,7.04151311 22.250128,1.1980319 14.6665501,1.52741393 C7.08297215,1.84459663 1.20508568,8.22484856 1.53640705,15.7640373 C1.65911866,18.4478908 2.55491347,20.9243557 3.99063939,22.9738439 L2.44447301,29.6834779 L9.0218157,27.3412057 C11.0710997,28.3781491 13.4026204,28.9271191 15.8568528,28.8173251 C23.4404307,28.5001424 29.3183172,22.1198905 28.9869958,14.5807018 Z M22.323755,13.3363697 C23.3299903,13.3363697 24.1521581,14.1537251 24.1521581,15.1540705 C24.1521581,16.154416 23.3299903,16.9717714 22.323755,16.9717714 C21.3175198,16.9717714 20.4953519,16.154416 20.4953519,15.1540705 C20.4953519,14.1537251 21.3175198,13.3363697 22.323755,13.3363697 Z M15.3291928,13.3363697 C16.3354281,13.3363697 17.1575959,14.1537251 17.1575959,15.1540705 C17.1575959,16.154416 16.3354281,16.9717714 15.3291928,16.9717714 C14.3229576,16.9717714 13.5007897,16.154416 13.5007897,15.1540705 C13.5007897,14.1537251 14.3229576,13.3363697 15.3291928,13.3363697 Z M8.33463064,13.3363697 C9.34086591,13.3363697 10.1630337,14.1537251 10.1630337,15.1540705 C10.1630337,16.154416 9.34086591,16.9717714 8.33463064,16.9717714 C7.32839538,16.9717714 6.50622755,16.154416 6.50622755,15.1540705 C6.50622755,14.1537251 7.32839538,13.3363697 8.33463064,13.3363697 Z"/></clipPath><clipPath id="d"><path d="M14.6115959,0.0146847449 C23.0262328,-0.351009419 30.1651814,6.15834669 30.5331684,14.5205532 C30.9011554,22.8827598 24.3509862,29.9772265 15.9363493,30.3429207 C13.5321673,30.4404392 11.1279853,29.9772265 8.94459557,28.9898523 L2.97093934,31.1230683 C2.82374453,31.1718275 2.66428348,31.2083969 2.51708867,31.2083969 C2.12456916,31.2327765 1.74431589,31.0986886 1.43766003,30.8305129 C1.02060805,30.4648188 0.836614532,29.8918979 0.959276878,29.3555465 L2.35762762,23.2728335 C0.934744409,21.0420991 0.125172928,18.48224 0.014776817,15.8370522 C-0.35321022,7.47484568 6.19695903,0.380378908 14.6115959,0.0146847449 Z M29.0121553,14.5693125 C28.680967,7.03601268 22.2534601,1.18490607 14.6729271,1.51403082 L14.6729271,1.52622062 C7.09239415,1.85534537 1.20460157,8.24280342 1.5357899,15.7761032 C1.65845225,18.4578604 2.55388737,20.9323909 3.98903681,22.9802782 L2.44349126,29.696861 L9.03045921,27.3442286 C11.0789204,28.380362 13.409505,28.9289033 15.8750181,28.819195 C23.4555511,28.4900703 29.3433436,22.1026122 29.0121553,14.5693125 Z M22.3270575,13.3381421 C23.3328887,13.3381421 24.1547264,14.1548591 24.1547264,15.1544231 C24.1547264,16.1539872 23.3328887,16.9707041 22.3270575,16.9707041 C21.3212262,16.9707041 20.4993885,16.1539872 20.4993885,15.1544231 C20.4993885,14.1548591 21.3212262,13.3381421 22.3270575,13.3381421 Z M15.3230375,13.3381421 C16.3288688,13.3381421 17.1507065,14.1548591 17.1507065,15.1544231 C17.1507065,16.1539872 16.3288688,16.9707041 15.3230375,16.9707041 C14.3172063,16.9707041 13.4953686,16.1539872 13.4953686,15.1544231 C13.4953686,14.1548591 14.3172063,13.3381421 15.3230375,13.3381421 Z M8.31901761,13.3381421 C9.32484884,13.3381421 10.1466866,14.1548591 10.1466866,15.1544231 C10.1466866,16.1539872 9.32484884,16.9707041 8.31901761,16.9707041 C7.31318638,16.9707041 6.49134866,16.1539872 6.49134866,15.1544231 C6.49134866,14.1548591 7.31318638,13.3381421 8.31901761,13.3381421 Z"/></clipPath><clipPath id="f"><path d="M14.6115959,0.0146847449 C23.0262328,-0.351009419 30.1651814,6.15834669 30.5331684,14.5205532 C30.9011554,22.8827598 24.3509862,29.9772265 15.9363493,30.3429207 C13.5321673,30.4404392 11.1279853,29.9772265 8.94459557,28.9898523 L2.97093934,31.1230683 C2.82374453,31.1718275 2.66428348,31.2083969 2.51708867,31.2083969 C2.12456916,31.2327765 1.74431589,31.0986886 1.43766003,30.8305129 C1.02060805,30.4648188 0.836614532,29.8918979 0.959276878,29.3555465 L2.35762762,23.2728335 C0.934744409,21.0420991 0.125172928,18.48224 0.014776817,15.8370522 C-0.35321022,7.47484568 6.19695903,0.380378908 14.6115959,0.0146847449 Z M29.0121553,14.5693125 C28.680967,7.03601268 22.2534601,1.18490607 14.6729271,1.51403082 L14.6729271,1.52622062 C7.09239415,1.85534537 1.20460157,8.24280342 1.5357899,15.7761032 C1.65845225,18.4578604 2.55388737,20.9323909 3.98903681,22.9802782 L2.44349126,29.696861 L9.03045921,27.3442286 C11.0789204,28.380362 13.409505,28.9289033 15.8750181,28.819195 C23.4555511,28.4900703 29.3433436,22.1026122 29.0121553,14.5693125 Z M22.3270575,13.3381421 C23.3328887,13.3381421 24.1547264,14.1548591 24.1547264,15.1544231 C24.1547264,16.1539872 23.3328887,16.9707041 22.3270575,16.9707041 C21.3212262,16.9707041 20.4993885,16.1539872 20.4993885,15.1544231 C20.4993885,14.1548591 21.3212262,13.3381421 22.3270575,13.3381421 Z M15.3230375,13.3381421 C16.3288688,13.3381421 17.1507065,14.1548591 17.1507065,15.1544231 C17.1507065,16.1539872 16.3288688,16.9707041 15.3230375,16.9707041 C14.3172063,16.9707041 13.4953686,16.1539872 13.4953686,15.1544231 C13.4953686,14.1548591 14.3172063,13.3381421 15.3230375,13.3381421 Z M8.31901761,13.3381421 C9.32484884,13.3381421 10.1466866,14.1548591 10.1466866,15.1544231 C10.1466866,16.1539872 9.32484884,16.9707041 8.31901761,16.9707041 C7.31318638,16.9707041 6.49134866,16.1539872 6.49134866,15.1544231 C6.49134866,14.1548591 7.31318638,13.3381421 8.31901761,13.3381421 Z"/></clipPath><clipPath id="h"><path d="M14.9320777,0.00418756792 C23.2006983,-0.18813463 30.169629,6.26761783 30.5331622,14.5197051 C30.9012971,22.8762492 24.3484967,29.9762619 15.9427509,30.3422419 C13.5376032,30.4398366 11.1324555,29.9762619 8.94818873,28.9881158 L2.97213297,31.1229993 C2.82487903,31.1717967 2.66535392,31.2083947 2.51809998,31.2083947 C2.12542281,31.2327934 1.74501679,31.0986007 1.43823775,30.8302153 C1.02101825,30.4642353 0.836950826,29.8908666 0.959662444,29.3540958 L2.35857488,23.2788273 C0.93512012,21.0463491 0.125223446,18.4844888 0.0147829905,15.8372333 C-0.353351861,7.48068915 6.1994485,0.380676495 14.6051943,0.0146964606 L14.6174655,0.0146964606 Z M28.9869958,14.5807018 C28.6679456,7.04151311 22.250128,1.1980319 14.6665501,1.52741393 C7.08297215,1.84459663 1.20508568,8.22484856 1.53640705,15.7640373 C1.65911866,18.4478908 2.55491347,20.9243557 3.99063939,22.9738439 L2.44447301,29.6834779 L9.0218157,27.3412057 C11.0710997,28.3781491 13.4026204,28.9271191 15.8568528,28.8173251 C23.4404307,28.5001424 29.3183172,22.1198905 28.9869958,14.5807018 Z M22.323755,13.3363697 C23.3299903,13.3363697 24.1521581,14.1537251 24.1521581,15.1540705 C24.1521581,16.154416 23.3299903,16.9717714 22.323755,16.9717714 C21.3175198,16.9717714 20.4953519,16.154416 20.4953519,15.1540705 C20.4953519,14.1537251 21.3175198,13.3363697 22.323755,13.3363697 Z M15.3291928,13.3363697 C16.3354281,13.3363697 17.1575959,14.1537251 17.1575959,15.1540705 C17.1575959,16.154416 16.3354281,16.9717714 15.3291928,16.9717714 C14.3229576,16.9717714 13.5007897,16.154416 13.5007897,15.1540705 C13.5007897,14.1537251 14.3229576,13.3363697 15.3291928,13.3363697 Z M8.33463064,13.3363697 C9.34086591,13.3363697 10.1630337,14.1537251 10.1630337,15.1540705 C10.1630337,16.154416 9.34086591,16.9717714 8.33463064,16.9717714 C7.32839538,16.9717714 6.50622755,16.154416 6.50622755,15.1540705 C6.50622755,14.1537251 7.32839538,13.3363697 8.33463064,13.3363697 Z"/></clipPath><clipPath id="j"><path d="M0.014776817,14.5214811 C0.370497619,6.15874021 7.52171236,-0.351031848 15.9363493,0.0146856832 C24.3509862,0.36821263 30.9011554,7.47532332 30.5331684,15.8380642 C30.4227723,18.483421 29.6132008,21.0434437 28.1903176,23.2743207 L29.5886683,29.3574223 C29.7113307,29.893808 29.5273372,30.4667654 29.1102852,30.832483 C28.8158956,31.1006758 28.423376,31.2225817 28.0308565,31.2103911 C27.8713955,31.2103911 27.7242007,31.1738193 27.5770059,31.125057 L21.6033496,28.9917047 C19.4199599,29.9791421 17.0157779,30.4545749 14.6115959,30.3448596 C6.19695903,29.9913327 -0.35321022,22.884222 0.014776817,14.5214811 Z M15.8750181,1.52631815 C8.28221891,1.19717237 1.86697823,7.03646228 1.5357899,14.582434 C1.20460157,22.1284057 7.09239415,28.5040814 14.6729271,28.8332271 C17.1384403,28.9429424 19.4690248,28.3943661 21.517486,27.3581664 L28.1044539,29.7109492 L26.5589084,22.9939372 C28.0063241,20.945919 28.889493,18.4712304 29.0121553,15.7893019 C29.3433436,8.24333013 23.4555511,1.86765451 15.8750181,1.53850873 Z M8.22088773,13.3389944 C9.22671897,13.3389944 10.0485567,14.1557636 10.0485567,15.1553915 C10.0485567,16.1550194 9.22671897,16.9717885 8.22088773,16.9717885 C7.2150565,16.9717885 6.39321879,16.1550194 6.39321879,15.1553915 C6.39321879,14.1557636 7.2150565,13.3389944 8.22088773,13.3389944 Z M15.2249077,13.3389944 C16.2307389,13.3389944 17.0525766,14.1557636 17.0525766,15.1553915 C17.0525766,16.1550194 16.2307389,16.9717885 15.2249077,16.9717885 C14.2190764,16.9717885 13.3972387,16.1550194 13.3972387,15.1553915 C13.3972387,14.1557636 14.2190764,13.3389944 15.2249077,13.3389944 Z M22.2289276,13.3389944 C23.2347588,13.3389944 24.0565965,14.1557636 24.0565965,15.1553915 C24.0565965,16.1550194 23.2347588,16.9717885 22.2289276,16.9717885 C21.2230964,16.9717885 20.4012586,16.1550194 20.4012586,15.1553915 C20.4012586,14.1557636 21.2230964,13.3389944 22.2289276,13.3389944 Z"/></clipPath><clipPath id="l"><path d="M0.0148088555,14.5206474 C0.382943083,6.15137571 7.52474711,-0.351280008 15.9304786,0.0147231286 L15.9427498,0.0147231286 L16.257535,0.0315943243 C24.5231859,0.558434131 30.8966689,7.5856505 30.5331363,15.8382587 C30.4104249,18.4978815 29.6128008,21.0477034 28.1893484,23.2803225 L29.5882585,29.3559745 C29.7109699,29.9049793 29.5269028,30.4661841 29.109684,30.8321872 C28.8029055,31.1005895 28.4225001,31.2225905 28.0298236,31.2103904 C27.8702988,31.2103904 27.7230451,31.1737901 27.5757914,31.1249897 L21.5997458,28.9899714 C19.4154827,29.9781799 17.010339,30.453984 14.6051954,30.344183 C6.18719274,29.9781799 -0.353325372,22.877719 0.0148088555,14.5206474 Z M15.8691229,1.52753609 C8.29782898,1.19813327 1.88002228,7.04198334 1.54870147,14.581648 C1.21738067,22.1091125 7.09525717,28.4897671 14.6788223,28.8191699 C17.1330505,28.9289709 19.4645672,28.3799662 21.5138478,27.3429573 L28.0911793,29.6853774 L26.5450155,22.9753199 C27.9930102,20.9135022 28.8765323,18.4490811 28.9992437,15.7650581 C29.3305645,8.23759359 23.452688,1.85693891 15.8691229,1.52753609 Z M8.211931,13.3372373 C9.21816455,13.3372373 10.040331,14.1546443 10.040331,15.1550529 C10.040331,16.1554614 9.21816455,16.9728684 8.211931,16.9728684 C7.20569744,16.9728684 6.383531,16.1554614 6.383531,15.1550529 C6.383531,14.1546443 7.20569744,13.3372373 8.211931,13.3372373 Z M15.2064813,13.3372373 C16.2127149,13.3372373 17.0348813,14.1546443 17.0348813,15.1550529 C17.0348813,16.1554614 16.2127149,16.9728684 15.2064813,16.9728684 C14.2002478,16.9728684 13.3780813,16.1554614 13.3780813,15.1550529 C13.3780813,14.1546443 14.2002478,13.3372373 15.2064813,13.3372373 Z M22.2010317,13.3372373 C23.2072652,13.3372373 24.0294317,14.1546443 24.0294317,15.1550529 C24.0294317,16.1554614 23.2072652,16.9728684 22.2010317,16.9728684 C21.1947981,16.9728684 20.3726317,16.1554614 20.3726317,15.1550529 C20.3726317,14.1546443 21.1947981,13.3372373 22.2010317,13.3372373 Z"/></clipPath><clipPath id="n"><path d="M0.0148088555,14.5206474 C0.382943083,6.15137571 7.52474711,-0.351280008 15.9304786,0.0147231286 L15.9427498,0.0147231286 L16.257535,0.0315943243 C24.5231859,0.558434131 30.8966689,7.5856505 30.5331363,15.8382587 C30.4104249,18.4978815 29.6128008,21.0477034 28.1893484,23.2803225 L29.5882585,29.3559745 C29.7109699,29.9049793 29.5269028,30.4661841 29.109684,30.8321872 C28.8029055,31.1005895 28.4225001,31.2225905 28.0298236,31.2103904 C27.8702988,31.2103904 27.7230451,31.1737901 27.5757914,31.1249897 L21.5997458,28.9899714 C19.4154827,29.9781799 17.010339,30.453984 14.6051954,30.344183 C6.18719274,29.9781799 -0.353325372,22.877719 0.0148088555,14.5206474 Z M15.8691229,1.52753609 C8.29782898,1.19813327 1.88002228,7.04198334 1.54870147,14.581648 C1.21738067,22.1091125 7.09525717,28.4897671 14.6788223,28.8191699 C17.1330505,28.9289709 19.4645672,28.3799662 21.5138478,27.3429573 L28.0911793,29.6853774 L26.5450155,22.9753199 C27.9930102,20.9135022 28.8765323,18.4490811 28.9992437,15.7650581 C29.3305645,8.23759359 23.452688,1.85693891 15.8691229,1.52753609 Z M8.211931,13.3372373 C9.21816455,13.3372373 10.040331,14.1546443 10.040331,15.1550529 C10.040331,16.1554614 9.21816455,16.9728684 8.211931,16.9728684 C7.20569744,16.9728684 6.383531,16.1554614 6.383531,15.1550529 C6.383531,14.1546443 7.20569744,13.3372373 8.211931,13.3372373 Z M15.2064813,13.3372373 C16.2127149,13.3372373 17.0348813,14.1546443 17.0348813,15.1550529 C17.0348813,16.1554614 16.2127149,16.9728684 15.2064813,16.9728684 C14.2002478,16.9728684 13.3780813,16.1554614 13.3780813,15.1550529 C13.3780813,14.1546443 14.2002478,13.3372373 15.2064813,13.3372373 Z M22.2010317,13.3372373 C23.2072652,13.3372373 24.0294317,14.1546443 24.0294317,15.1550529 C24.0294317,16.1554614 23.2072652,16.9728684 22.2010317,16.9728684 C21.1947981,16.9728684 20.3726317,16.1554614 20.3726317,15.1550529 C20.3726317,14.1546443 21.1947981,13.3372373 22.2010317,13.3372373 Z"/></clipPath><clipPath id="p"><path d="M0.014776817,14.5214811 C0.370497619,6.15874021 7.52171236,-0.351031848 15.9363493,0.0146856832 C24.3509862,0.36821263 30.9011554,7.47532332 30.5331684,15.8380642 C30.4227723,18.483421 29.6132008,21.0434437 28.1903176,23.2743207 L29.5886683,29.3574223 C29.7113307,29.893808 29.5273372,30.4667654 29.1102852,30.832483 C28.8158956,31.1006758 28.423376,31.2225817 28.0308565,31.2103911 C27.8713955,31.2103911 27.7242007,31.1738193 27.5770059,31.125057 L21.6033496,28.9917047 C19.4199599,29.9791421 17.0157779,30.4545749 14.6115959,30.3448596 C6.19695903,29.9913327 -0.35321022,22.884222 0.014776817,14.5214811 Z M15.8750181,1.52631815 C8.28221891,1.19717237 1.86697823,7.03646228 1.5357899,14.582434 C1.20460157,22.1284057 7.09239415,28.5040814 14.6729271,28.8332271 C17.1384403,28.9429424 19.4690248,28.3943661 21.517486,27.3581664 L28.1044539,29.7109492 L26.5589084,22.9939372 C28.0063241,20.945919 28.889493,18.4712304 29.0121553,15.7893019 C29.3433436,8.24333013 23.4555511,1.86765451 15.8750181,1.53850873 Z M8.22088773,13.3389944 C9.22671897,13.3389944 10.0485567,14.1557636 10.0485567,15.1553915 C10.0485567,16.1550194 9.22671897,16.9717885 8.22088773,16.9717885 C7.2150565,16.9717885 6.39321879,16.1550194 6.39321879,15.1553915 C6.39321879,14.1557636 7.2150565,13.3389944 8.22088773,13.3389944 Z M15.2249077,13.3389944 C16.2307389,13.3389944 17.0525766,14.1557636 17.0525766,15.1553915 C17.0525766,16.1550194 16.2307389,16.9717885 15.2249077,16.9717885 C14.2190764,16.9717885 13.3972387,16.1550194 13.3972387,15.1553915 C13.3972387,14.1557636 14.2190764,13.3389944 15.2249077,13.3389944 Z M22.2289276,13.3389944 C23.2347588,13.3389944 24.0565965,14.1557636 24.0565965,15.1553915 C24.0565965,16.1550194 23.2347588,16.9717885 22.2289276,16.9717885 C21.2230964,16.9717885 20.4012586,16.1550194 20.4012586,15.1553915 C20.4012586,14.1557636 21.2230964,13.3389944 22.2289276,13.3389944 Z"/></clipPath><clipPath id="r"><path d="M0.014776817,14.5214811 C0.370497619,6.15874021 7.52171236,-0.351031848 15.9363493,0.0146856832 C24.3509862,0.36821263 30.9011554,7.47532332 30.5331684,15.8380642 C30.4227723,18.483421 29.6132008,21.0434437 28.1903176,23.2743207 L29.5886683,29.3574223 C29.7113307,29.893808 29.5273372,30.4667654 29.1102852,30.832483 C28.8158956,31.1006758 28.423376,31.2225817 28.0308565,31.2103911 C27.8713955,31.2103911 27.7242007,31.1738193 27.5770059,31.125057 L21.6033496,28.9917047 C19.4199599,29.9791421 17.0157779,30.4545749 14.6115959,30.3448596 C6.19695903,29.9913327 -0.35321022,22.884222 0.014776817,14.5214811 Z M15.8750181,1.52631815 C8.28221891,1.19717237 1.86697823,7.03646228 1.5357899,14.582434 C1.20460157,22.1284057 7.09239415,28.5040814 14.6729271,28.8332271 C17.1384403,28.9429424 19.4690248,28.3943661 21.517486,27.3581664 L28.1044539,29.7109492 L26.5589084,22.9939372 C28.0063241,20.945919 28.889493,18.4712304 29.0121553,15.7893019 C29.3433436,8.24333013 23.4555511,1.86765451 15.8750181,1.53850873 Z M8.22088773,13.3389944 C9.22671897,13.3389944 10.0485567,14.1557636 10.0485567,15.1553915 C10.0485567,16.1550194 9.22671897,16.9717885 8.22088773,16.9717885 C7.2150565,16.9717885 6.39321879,16.1550194 6.39321879,15.1553915 C6.39321879,14.1557636 7.2150565,13.3389944 8.22088773,13.3389944 Z M15.2249077,13.3389944 C16.2307389,13.3389944 17.0525766,14.1557636 17.0525766,15.1553915 C17.0525766,16.1550194 16.2307389,16.9717885 15.2249077,16.9717885 C14.2190764,16.9717885 13.3972387,16.1550194 13.3972387,15.1553915 C13.3972387,14.1557636 14.2190764,13.3389944 15.2249077,13.3389944 Z M22.2289276,13.3389944 C23.2347588,13.3389944 24.0565965,14.1557636 24.0565965,15.1553915 C24.0565965,16.1550194 23.2347588,16.9717885 22.2289276,16.9717885 C21.2230964,16.9717885 20.4012586,16.1550194 20.4012586,15.1553915 C20.4012586,14.1557636 21.2230964,13.3389944 22.2289276,13.3389944 Z"/></clipPath><clipPath id="t"><path d="M0.0148088555,14.5206474 C0.382943083,6.15137571 7.52474711,-0.351280008 15.9304786,0.0147231286 L15.9427498,0.0147231286 L16.257535,0.0315943243 C24.5231859,0.558434131 30.8966689,7.5856505 30.5331363,15.8382587 C30.4104249,18.4978815 29.6128008,21.0477034 28.1893484,23.2803225 L29.5882585,29.3559745 C29.7109699,29.9049793 29.5269028,30.4661841 29.109684,30.8321872 C28.8029055,31.1005895 28.4225001,31.2225905 28.0298236,31.2103904 C27.8702988,31.2103904 27.7230451,31.1737901 27.5757914,31.1249897 L21.5997458,28.9899714 C19.4154827,29.9781799 17.010339,30.453984 14.6051954,30.344183 C6.18719274,29.9781799 -0.353325372,22.877719 0.0148088555,14.5206474 Z M15.8691229,1.52753609 C8.29782898,1.19813327 1.88002228,7.04198334 1.54870147,14.581648 C1.21738067,22.1091125 7.09525717,28.4897671 14.6788223,28.8191699 C17.1330505,28.9289709 19.4645672,28.3799662 21.5138478,27.3429573 L28.0911793,29.6853774 L26.5450155,22.9753199 C27.9930102,20.9135022 28.8765323,18.4490811 28.9992437,15.7650581 C29.3305645,8.23759359 23.452688,1.85693891 15.8691229,1.52753609 Z M8.211931,13.3372373 C9.21816455,13.3372373 10.040331,14.1546443 10.040331,15.1550529 C10.040331,16.1554614 9.21816455,16.9728684 8.211931,16.9728684 C7.20569744,16.9728684 6.383531,16.1554614 6.383531,15.1550529 C6.383531,14.1546443 7.20569744,13.3372373 8.211931,13.3372373 Z M15.2064813,13.3372373 C16.2127149,13.3372373 17.0348813,14.1546443 17.0348813,15.1550529 C17.0348813,16.1554614 16.2127149,16.9728684 15.2064813,16.9728684 C14.2002478,16.9728684 13.3780813,16.1554614 13.3780813,15.1550529 C13.3780813,14.1546443 14.2002478,13.3372373 15.2064813,13.3372373 Z M22.2010317,13.3372373 C23.2072652,13.3372373 24.0294317,14.1546443 24.0294317,15.1550529 C24.0294317,16.1554614 23.2072652,16.9728684 22.2010317,16.9728684 C21.1947981,16.9728684 20.3726317,16.1554614 20.3726317,15.1550529 C20.3726317,14.1546443 21.1947981,13.3372373 22.2010317,13.3372373 Z"/></clipPath><clipPath id="v"><path d="M0.0148088555,14.5206474 C0.382943083,6.15137571 7.52474711,-0.351280008 15.9304786,0.0147231286 L15.9427498,0.0147231286 L16.257535,0.0315943243 C24.5231859,0.558434131 30.8966689,7.5856505 30.5331363,15.8382587 C30.4104249,18.4978815 29.6128008,21.0477034 28.1893484,23.2803225 L29.5882585,29.3559745 C29.7109699,29.9049793 29.5269028,30.4661841 29.109684,30.8321872 C28.8029055,31.1005895 28.4225001,31.2225905 28.0298236,31.2103904 C27.8702988,31.2103904 27.7230451,31.1737901 27.5757914,31.1249897 L21.5997458,28.9899714 C19.4154827,29.9781799 17.010339,30.453984 14.6051954,30.344183 C6.18719274,29.9781799 -0.353325372,22.877719 0.0148088555,14.5206474 Z M15.8691229,1.52753609 C8.29782898,1.19813327 1.88002228,7.04198334 1.54870147,14.581648 C1.21738067,22.1091125 7.09525717,28.4897671 14.6788223,28.8191699 C17.1330505,28.9289709 19.4645672,28.3799662 21.5138478,27.3429573 L28.0911793,29.6853774 L26.5450155,22.9753199 C27.9930102,20.9135022 28.8765323,18.4490811 28.9992437,15.7650581 C29.3305645,8.23759359 23.452688,1.85693891 15.8691229,1.52753609 Z M8.211931,13.3372373 C9.21816455,13.3372373 10.040331,14.1546443 10.040331,15.1550529 C10.040331,16.1554614 9.21816455,16.9728684 8.211931,16.9728684 C7.20569744,16.9728684 6.383531,16.1554614 6.383531,15.1550529 C6.383531,14.1546443 7.20569744,13.3372373 8.211931,13.3372373 Z M15.2064813,13.3372373 C16.2127149,13.3372373 17.0348813,14.1546443 17.0348813,15.1550529 C17.0348813,16.1554614 16.2127149,16.9728684 15.2064813,16.9728684 C14.2002478,16.9728684 13.3780813,16.1554614 13.3780813,15.1550529 C13.3780813,14.1546443 14.2002478,13.3372373 15.2064813,13.3372373 Z M22.2010317,13.3372373 C23.2072652,13.3372373 24.0294317,14.1546443 24.0294317,15.1550529 C24.0294317,16.1554614 23.2072652,16.9728684 22.2010317,16.9728684 C21.1947981,16.9728684 20.3726317,16.1554614 20.3726317,15.1550529 C20.3726317,14.1546443 21.1947981,13.3372373 22.2010317,13.3372373 Z"/></clipPath><clipPath id="x"><path d="M14.6115959,0.0146847449 C23.0262328,-0.351009419 30.1651814,6.15834669 30.5331684,14.5205532 C30.9011554,22.8827598 24.3509862,29.9772265 15.9363493,30.3429207 C13.5321673,30.4404392 11.1279853,29.9772265 8.94459557,28.9898523 L2.97093934,31.1230683 C2.82374453,31.1718275 2.66428348,31.2083969 2.51708867,31.2083969 C2.12456916,31.2327765 1.74431589,31.0986886 1.43766003,30.8305129 C1.02060805,30.4648188 0.836614532,29.8918979 0.959276878,29.3555465 L2.35762762,23.2728335 C0.934744409,21.0420991 0.125172928,18.48224 0.014776817,15.8370522 C-0.35321022,7.47484568 6.19695903,0.380378908 14.6115959,0.0146847449 Z M29.0121553,14.5693125 C28.680967,7.03601268 22.2534601,1.18490607 14.6729271,1.51403082 L14.6729271,1.52622062 C7.09239415,1.85534537 1.20460157,8.24280342 1.5357899,15.7761032 C1.65845225,18.4578604 2.55388737,20.9323909 3.98903681,22.9802782 L2.44349126,29.696861 L9.03045921,27.3442286 C11.0789204,28.380362 13.409505,28.9289033 15.8750181,28.819195 C23.4555511,28.4900703 29.3433436,22.1026122 29.0121553,14.5693125 Z M22.3270575,13.3381421 C23.3328887,13.3381421 24.1547264,14.1548591 24.1547264,15.1544231 C24.1547264,16.1539872 23.3328887,16.9707041 22.3270575,16.9707041 C21.3212262,16.9707041 20.4993885,16.1539872 20.4993885,15.1544231 C20.4993885,14.1548591 21.3212262,13.3381421 22.3270575,13.3381421 Z M15.3230375,13.3381421 C16.3288688,13.3381421 17.1507065,14.1548591 17.1507065,15.1544231 C17.1507065,16.1539872 16.3288688,16.9707041 15.3230375,16.9707041 C14.3172063,16.9707041 13.4953686,16.1539872 13.4953686,15.1544231 C13.4953686,14.1548591 14.3172063,13.3381421 15.3230375,13.3381421 Z M8.31901761,13.3381421 C9.32484884,13.3381421 10.1466866,14.1548591 10.1466866,15.1544231 C10.1466866,16.1539872 9.32484884,16.9707041 8.31901761,16.9707041 C7.31318638,16.9707041 6.49134866,16.1539872 6.49134866,15.1544231 C6.49134866,14.1548591 7.31318638,13.3381421 8.31901761,13.3381421 Z"/></clipPath><clipPath id="z"><path d="M14.6115959,0.0146847449 C23.0262328,-0.351009419 30.1651814,6.15834669 30.5331684,14.5205532 C30.9011554,22.8827598 24.3509862,29.9772265 15.9363493,30.3429207 C13.5321673,30.4404392 11.1279853,29.9772265 8.94459557,28.9898523 L2.97093934,31.1230683 C2.82374453,31.1718275 2.66428348,31.2083969 2.51708867,31.2083969 C2.12456916,31.2327765 1.74431589,31.0986886 1.43766003,30.8305129 C1.02060805,30.4648188 0.836614532,29.8918979 0.959276878,29.3555465 L2.35762762,23.2728335 C0.934744409,21.0420991 0.125172928,18.48224 0.014776817,15.8370522 C-0.35321022,7.47484568 6.19695903,0.380378908 14.6115959,0.0146847449 Z M29.0121553,14.5693125 C28.680967,7.03601268 22.2534601,1.18490607 14.6729271,1.51403082 L14.6729271,1.52622062 C7.09239415,1.85534537 1.20460157,8.24280342 1.5357899,15.7761032 C1.65845225,18.4578604 2.55388737,20.9323909 3.98903681,22.9802782 L2.44349126,29.696861 L9.03045921,27.3442286 C11.0789204,28.380362 13.409505,28.9289033 15.8750181,28.819195 C23.4555511,28.4900703 29.3433436,22.1026122 29.0121553,14.5693125 Z M22.3270575,13.3381421 C23.3328887,13.3381421 24.1547264,14.1548591 24.1547264,15.1544231 C24.1547264,16.1539872 23.3328887,16.9707041 22.3270575,16.9707041 C21.3212262,16.9707041 20.4993885,16.1539872 20.4993885,15.1544231 C20.4993885,14.1548591 21.3212262,13.3381421 22.3270575,13.3381421 Z M15.3230375,13.3381421 C16.3288688,13.3381421 17.1507065,14.1548591 17.1507065,15.1544231 C17.1507065,16.1539872 16.3288688,16.9707041 15.3230375,16.9707041 C14.3172063,16.9707041 13.4953686,16.1539872 13.4953686,15.1544231 C13.4953686,14.1548591 14.3172063,13.3381421 15.3230375,13.3381421 Z M8.31901761,13.3381421 C9.32484884,13.3381421 10.1466866,14.1548591 10.1466866,15.1544231 C10.1466866,16.1539872 9.32484884,16.9707041 8.31901761,16.9707041 C7.31318638,16.9707041 6.49134866,16.1539872 6.49134866,15.1544231 C6.49134866,14.1548591 7.31318638,13.3381421 8.31901761,13.3381421 Z"/></clipPath><clipPath id="B"><path d="M14.9320777,0.00418756792 C23.2006983,-0.18813463 30.169629,6.26761783 30.5331622,14.5197051 C30.9012971,22.8762492 24.3484967,29.9762619 15.9427509,30.3422419 C13.5376032,30.4398366 11.1324555,29.9762619 8.94818873,28.9881158 L2.97213297,31.1229993 C2.82487903,31.1717967 2.66535392,31.2083947 2.51809998,31.2083947 C2.12542281,31.2327934 1.74501679,31.0986007 1.43823775,30.8302153 C1.02101825,30.4642353 0.836950826,29.8908666 0.959662444,29.3540958 L2.35857488,23.2788273 C0.93512012,21.0463491 0.125223446,18.4844888 0.0147829905,15.8372333 C-0.353351861,7.48068915 6.1994485,0.380676495 14.6051943,0.0146964606 L14.6174655,0.0146964606 Z M28.9869958,14.5807018 C28.6679456,7.04151311 22.250128,1.1980319 14.6665501,1.52741393 C7.08297215,1.84459663 1.20508568,8.22484856 1.53640705,15.7640373 C1.65911866,18.4478908 2.55491347,20.9243557 3.99063939,22.9738439 L2.44447301,29.6834779 L9.0218157,27.3412057 C11.0710997,28.3781491 13.4026204,28.9271191 15.8568528,28.8173251 C23.4404307,28.5001424 29.3183172,22.1198905 28.9869958,14.5807018 Z M22.323755,13.3363697 C23.3299903,13.3363697 24.1521581,14.1537251 24.1521581,15.1540705 C24.1521581,16.154416 23.3299903,16.9717714 22.323755,16.9717714 C21.3175198,16.9717714 20.4953519,16.154416 20.4953519,15.1540705 C20.4953519,14.1537251 21.3175198,13.3363697 22.323755,13.3363697 Z M15.3291928,13.3363697 C16.3354281,13.3363697 17.1575959,14.1537251 17.1575959,15.1540705 C17.1575959,16.154416 16.3354281,16.9717714 15.3291928,16.9717714 C14.3229576,16.9717714 13.5007897,16.154416 13.5007897,15.1540705 C13.5007897,14.1537251 14.3229576,13.3363697 15.3291928,13.3363697 Z M8.33463064,13.3363697 C9.34086591,13.3363697 10.1630337,14.1537251 10.1630337,15.1540705 C10.1630337,16.154416 9.34086591,16.9717714 8.33463064,16.9717714 C7.32839538,16.9717714 6.50622755,16.154416 6.50622755,15.1540705 C6.50622755,14.1537251 7.32839538,13.3363697 8.33463064,13.3363697 Z"/></clipPath><clipPath id="D"><path d="M14.9320777,0.00418756792 C23.2006983,-0.18813463 30.169629,6.26761783 30.5331622,14.5197051 C30.9012971,22.8762492 24.3484967,29.9762619 15.9427509,30.3422419 C13.5376032,30.4398366 11.1324555,29.9762619 8.94818873,28.9881158 L2.97213297,31.1229993 C2.82487903,31.1717967 2.66535392,31.2083947 2.51809998,31.2083947 C2.12542281,31.2327934 1.74501679,31.0986007 1.43823775,30.8302153 C1.02101825,30.4642353 0.836950826,29.8908666 0.959662444,29.3540958 L2.35857488,23.2788273 C0.93512012,21.0463491 0.125223446,18.4844888 0.0147829905,15.8372333 C-0.353351861,7.48068915 6.1994485,0.380676495 14.6051943,0.0146964606 L14.6174655,0.0146964606 Z M28.9869958,14.5807018 C28.6679456,7.04151311 22.250128,1.1980319 14.6665501,1.52741393 C7.08297215,1.84459663 1.20508568,8.22484856 1.53640705,15.7640373 C1.65911866,18.4478908 2.55491347,20.9243557 3.99063939,22.9738439 L2.44447301,29.6834779 L9.0218157,27.3412057 C11.0710997,28.3781491 13.4026204,28.9271191 15.8568528,28.8173251 C23.4404307,28.5001424 29.3183172,22.1198905 28.9869958,14.5807018 Z M22.323755,13.3363697 C23.3299903,13.3363697 24.1521581,14.1537251 24.1521581,15.1540705 C24.1521581,16.154416 23.3299903,16.9717714 22.323755,16.9717714 C21.3175198,16.9717714 20.4953519,16.154416 20.4953519,15.1540705 C20.4953519,14.1537251 21.3175198,13.3363697 22.323755,13.3363697 Z M15.3291928,13.3363697 C16.3354281,13.3363697 17.1575959,14.1537251 17.1575959,15.1540705 C17.1575959,16.154416 16.3354281,16.9717714 15.3291928,16.9717714 C14.3229576,16.9717714 13.5007897,16.154416 13.5007897,15.1540705 C13.5007897,14.1537251 14.3229576,13.3363697 15.3291928,13.3363697 Z M8.33463064,13.3363697 C9.34086591,13.3363697 10.1630337,14.1537251 10.1630337,15.1540705 C10.1630337,16.154416 9.34086591,16.9717714 8.33463064,16.9717714 C7.32839538,16.9717714 6.50622755,16.154416 6.50622755,15.1540705 C6.50622755,14.1537251 7.32839538,13.3363697 8.33463064,13.3363697 Z"/></clipPath><clipPath id="F"><path d="M14.6115959,0.0146847449 C23.0262328,-0.351009419 30.1651814,6.15834669 30.5331684,14.5205532 C30.9011554,22.8827598 24.3509862,29.9772265 15.9363493,30.3429207 C13.5321673,30.4404392 11.1279853,29.9772265 8.94459557,28.9898523 L2.97093934,31.1230683 C2.82374453,31.1718275 2.66428348,31.2083969 2.51708867,31.2083969 C2.12456916,31.2327765 1.74431589,31.0986886 1.43766003,30.8305129 C1.02060805,30.4648188 0.836614532,29.8918979 0.959276878,29.3555465 L2.35762762,23.2728335 C0.934744409,21.0420991 0.125172928,18.48224 0.014776817,15.8370522 C-0.35321022,7.47484568 6.19695903,0.380378908 14.6115959,0.0146847449 Z M29.0121553,14.5693125 C28.680967,7.03601268 22.2534601,1.18490607 14.6729271,1.51403082 L14.6729271,1.52622062 C7.09239415,1.85534537 1.20460157,8.24280342 1.5357899,15.7761032 C1.65845225,18.4578604 2.55388737,20.9323909 3.98903681,22.9802782 L2.44349126,29.696861 L9.03045921,27.3442286 C11.0789204,28.380362 13.409505,28.9289033 15.8750181,28.819195 C23.4555511,28.4900703 29.3433436,22.1026122 29.0121553,14.5693125 Z M22.3270575,13.3381421 C23.3328887,13.3381421 24.1547264,14.1548591 24.1547264,15.1544231 C24.1547264,16.1539872 23.3328887,16.9707041 22.3270575,16.9707041 C21.3212262,16.9707041 20.4993885,16.1539872 20.4993885,15.1544231 C20.4993885,14.1548591 21.3212262,13.3381421 22.3270575,13.3381421 Z M15.3230375,13.3381421 C16.3288688,13.3381421 17.1507065,14.1548591 17.1507065,15.1544231 C17.1507065,16.1539872 16.3288688,16.9707041 15.3230375,16.9707041 C14.3172063,16.9707041 13.4953686,16.1539872 13.4953686,15.1544231 C13.4953686,14.1548591 14.3172063,13.3381421 15.3230375,13.3381421 Z M8.31901761,13.3381421 C9.32484884,13.3381421 10.1466866,14.1548591 10.1466866,15.1544231 C10.1466866,16.1539872 9.32484884,16.9707041 8.31901761,16.9707041 C7.31318638,16.9707041 6.49134866,16.1539872 6.49134866,15.1544231 C6.49134866,14.1548591 7.31318638,13.3381421 8.31901761,13.3381421 Z"/></clipPath><clipPath id="H"><path d="M14.6115959,0.0146847449 C23.0262328,-0.351009419 30.1651814,6.15834669 30.5331684,14.5205532 C30.9011554,22.8827598 24.3509862,29.9772265 15.9363493,30.3429207 C13.5321673,30.4404392 11.1279853,29.9772265 8.94459557,28.9898523 L2.97093934,31.1230683 C2.82374453,31.1718275 2.66428348,31.2083969 2.51708867,31.2083969 C2.12456916,31.2327765 1.74431589,31.0986886 1.43766003,30.8305129 C1.02060805,30.4648188 0.836614532,29.8918979 0.959276878,29.3555465 L2.35762762,23.2728335 C0.934744409,21.0420991 0.125172928,18.48224 0.014776817,15.8370522 C-0.35321022,7.47484568 6.19695903,0.380378908 14.6115959,0.0146847449 Z M29.0121553,14.5693125 C28.680967,7.03601268 22.2534601,1.18490607 14.6729271,1.51403082 L14.6729271,1.52622062 C7.09239415,1.85534537 1.20460157,8.24280342 1.5357899,15.7761032 C1.65845225,18.4578604 2.55388737,20.9323909 3.98903681,22.9802782 L2.44349126,29.696861 L9.03045921,27.3442286 C11.0789204,28.380362 13.409505,28.9289033 15.8750181,28.819195 C23.4555511,28.4900703 29.3433436,22.1026122 29.0121553,14.5693125 Z M22.3270575,13.3381421 C23.3328887,13.3381421 24.1547264,14.1548591 24.1547264,15.1544231 C24.1547264,16.1539872 23.3328887,16.9707041 22.3270575,16.9707041 C21.3212262,16.9707041 20.4993885,16.1539872 20.4993885,15.1544231 C20.4993885,14.1548591 21.3212262,13.3381421 22.3270575,13.3381421 Z M15.3230375,13.3381421 C16.3288688,13.3381421 17.1507065,14.1548591 17.1507065,15.1544231 C17.1507065,16.1539872 16.3288688,16.9707041 15.3230375,16.9707041 C14.3172063,16.9707041 13.4953686,16.1539872 13.4953686,15.1544231 C13.4953686,14.1548591 14.3172063,13.3381421 15.3230375,13.3381421 Z M8.31901761,13.3381421 C9.32484884,13.3381421 10.1466866,14.1548591 10.1466866,15.1544231 C10.1466866,16.1539872 9.32484884,16.9707041 8.31901761,16.9707041 C7.31318638,16.9707041 6.49134866,16.1539872 6.49134866,15.1544231 C6.49134866,14.1548591 7.31318638,13.3381421 8.31901761,13.3381421 Z"/></clipPath><clipPath id="J"><path d="M14.9320777,0.00418756792 C23.2006983,-0.18813463 30.169629,6.26761783 30.5331622,14.5197051 C30.9012971,22.8762492 24.3484967,29.9762619 15.9427509,30.3422419 C13.5376032,30.4398366 11.1324555,29.9762619 8.94818873,28.9881158 L2.97213297,31.1229993 C2.82487903,31.1717967 2.66535392,31.2083947 2.51809998,31.2083947 C2.12542281,31.2327934 1.74501679,31.0986007 1.43823775,30.8302153 C1.02101825,30.4642353 0.836950826,29.8908666 0.959662444,29.3540958 L2.35857488,23.2788273 C0.93512012,21.0463491 0.125223446,18.4844888 0.0147829905,15.8372333 C-0.353351861,7.48068915 6.1994485,0.380676495 14.6051943,0.0146964606 L14.6174655,0.0146964606 Z M28.9869958,14.5807018 C28.6679456,7.04151311 22.250128,1.1980319 14.6665501,1.52741393 C7.08297215,1.84459663 1.20508568,8.22484856 1.53640705,15.7640373 C1.65911866,18.4478908 2.55491347,20.9243557 3.99063939,22.9738439 L2.44447301,29.6834779 L9.0218157,27.3412057 C11.0710997,28.3781491 13.4026204,28.9271191 15.8568528,28.8173251 C23.4404307,28.5001424 29.3183172,22.1198905 28.9869958,14.5807018 Z M22.323755,13.3363697 C23.3299903,13.3363697 24.1521581,14.1537251 24.1521581,15.1540705 C24.1521581,16.154416 23.3299903,16.9717714 22.323755,16.9717714 C21.3175198,16.9717714 20.4953519,16.154416 20.4953519,15.1540705 C20.4953519,14.1537251 21.3175198,13.3363697 22.323755,13.3363697 Z M15.3291928,13.3363697 C16.3354281,13.3363697 17.1575959,14.1537251 17.1575959,15.1540705 C17.1575959,16.154416 16.3354281,16.9717714 15.3291928,16.9717714 C14.3229576,16.9717714 13.5007897,16.154416 13.5007897,15.1540705 C13.5007897,14.1537251 14.3229576,13.3363697 15.3291928,13.3363697 Z M8.33463064,13.3363697 C9.34086591,13.3363697 10.1630337,14.1537251 10.1630337,15.1540705 C10.1630337,16.154416 9.34086591,16.9717714 8.33463064,16.9717714 C7.32839538,16.9717714 6.50622755,16.154416 6.50622755,15.1540705 C6.50622755,14.1537251 7.32839538,13.3363697 8.33463064,13.3363697 Z"/></clipPath><clipPath id="L"><path d="M14.9320777,0.00418756792 C23.2006983,-0.18813463 30.169629,6.26761783 30.5331622,14.5197051 C30.9012971,22.8762492 24.3484967,29.9762619 15.9427509,30.3422419 C13.5376032,30.4398366 11.1324555,29.9762619 8.94818873,28.9881158 L2.97213297,31.1229993 C2.82487903,31.1717967 2.66535392,31.2083947 2.51809998,31.2083947 C2.12542281,31.2327934 1.74501679,31.0986007 1.43823775,30.8302153 C1.02101825,30.4642353 0.836950826,29.8908666 0.959662444,29.3540958 L2.35857488,23.2788273 C0.93512012,21.0463491 0.125223446,18.4844888 0.0147829905,15.8372333 C-0.353351861,7.48068915 6.1994485,0.380676495 14.6051943,0.0146964606 L14.6174655,0.0146964606 Z M28.9869958,14.5807018 C28.6679456,7.04151311 22.250128,1.1980319 14.6665501,1.52741393 C7.08297215,1.84459663 1.20508568,8.22484856 1.53640705,15.7640373 C1.65911866,18.4478908 2.55491347,20.9243557 3.99063939,22.9738439 L2.44447301,29.6834779 L9.0218157,27.3412057 C11.0710997,28.3781491 13.4026204,28.9271191 15.8568528,28.8173251 C23.4404307,28.5001424 29.3183172,22.1198905 28.9869958,14.5807018 Z M22.323755,13.3363697 C23.3299903,13.3363697 24.1521581,14.1537251 24.1521581,15.1540705 C24.1521581,16.154416 23.3299903,16.9717714 22.323755,16.9717714 C21.3175198,16.9717714 20.4953519,16.154416 20.4953519,15.1540705 C20.4953519,14.1537251 21.3175198,13.3363697 22.323755,13.3363697 Z M15.3291928,13.3363697 C16.3354281,13.3363697 17.1575959,14.1537251 17.1575959,15.1540705 C17.1575959,16.154416 16.3354281,16.9717714 15.3291928,16.9717714 C14.3229576,16.9717714 13.5007897,16.154416 13.5007897,15.1540705 C13.5007897,14.1537251 14.3229576,13.3363697 15.3291928,13.3363697 Z M8.33463064,13.3363697 C9.34086591,13.3363697 10.1630337,14.1537251 10.1630337,15.1540705 C10.1630337,16.154416 9.34086591,16.9717714 8.33463064,16.9717714 C7.32839538,16.9717714 6.50622755,16.154416 6.50622755,15.1540705 C6.50622755,14.1537251 7.32839538,13.3363697 8.33463064,13.3363697 Z"/></clipPath><clipPath id="N"><path d="M0.0146647984,14.5093165 C0.3792179,6.14657558 7.45154808,-0.351005892 15.7755106,0.0147116396 L15.7876623,0.0147116396 L16.1033198,0.0318232206 C24.2866524,0.560248592 30.5960555,7.58105244 30.2361169,15.8258996 C30.1145992,18.483447 29.3247342,21.0312791 27.9151289,23.262156 L29.3004307,29.3330671 C29.4219484,29.8816433 29.2396718,30.4424102 28.8265116,30.8081278 C28.5227174,31.0763206 28.1460125,31.1982265 27.7571559,31.1860359 C27.5991828,31.1860359 27.4533616,31.1494641 27.3075404,31.1007018 L21.3896283,28.9673495 C19.2266133,29.9547869 16.8448663,30.4302196 14.4631194,30.3205044 C6.12700514,29.9547869 -0.349888304,22.8598667 0.0146647984,14.5093165 Z M15.7147517,1.5263441 C8.21710959,1.19719832 1.86173385,7.03648824 1.53363606,14.5702694 C1.20553826,22.0918599 7.02623613,28.4675356 14.53603,28.7966813 C16.966384,28.9063966 19.2752203,28.3578203 21.304566,27.3216206 L27.8179147,29.6622128 L26.2867917,22.9573914 C27.7207005,20.8971827 28.595628,18.4346846 28.7171457,15.7527561 C29.0452435,8.23116551 23.2245456,1.85548988 15.7147517,1.5263441 Z M8.1320472,13.3268298 C9.12849235,13.3268298 9.94266094,14.1435989 9.94266094,15.1432268 C9.94266094,16.1428548 9.12849235,16.9596239 8.1320472,16.9596239 C7.13560206,16.9596239 6.32143346,16.1428548 6.32143346,15.1432268 C6.32143346,14.1435989 7.13560206,13.3268298 8.1320472,13.3268298 Z M15.0585561,13.3268298 C16.0550013,13.3268298 16.8691699,14.1435989 16.8691699,15.1432268 C16.8691699,16.1428548 16.0550013,16.9596239 15.0585561,16.9596239 C14.062111,16.9596239 13.2479424,16.1428548 13.2479424,15.1432268 C13.2479424,14.1435989 14.062111,13.3268298 15.0585561,13.3268298 Z M21.9850651,13.3268298 C22.9815102,13.3268298 23.7956788,14.1435989 23.7956788,15.1432268 C23.7956788,16.1428548 22.9815102,16.9596239 21.9850651,16.9596239 C20.9886199,16.9596239 20.1744513,16.1428548 20.1744513,15.1432268 C20.1744513,14.1435989 20.9886199,13.3268298 21.9850651,13.3268298 Z"/></clipPath><clipPath id="P"><path d="M0.0146389246,14.5214811 C0.367040256,6.15874021 7.4515222,-0.351031848 15.7876365,0.0146856832 C24.1237507,0.36821263 30.6127959,7.47532332 30.2482428,15.8380642 C30.1388769,18.483421 29.3368601,21.0434437 27.9272548,23.2743207 L29.3125565,29.3574223 C29.4340742,29.893808 29.2517977,30.4667654 28.8386375,30.832483 C28.546995,31.1006758 28.1581384,31.2225817 27.7692818,31.2103911 C27.6113087,31.2103911 27.4654875,31.1738193 27.3196663,31.125057 L21.4017542,28.9917047 C19.2387392,29.9791421 16.8569922,30.4545749 14.4752453,30.3448596 C6.13913104,29.9913327 -0.349914177,22.884222 0.0146389246,14.5214811 Z M15.7268776,1.52631815 C8.20493195,1.19717237 1.8495562,7.03646228 1.52145841,14.582434 C1.19336062,22.1284057 7.02621025,28.5040814 14.5360042,28.8332271 C16.9785099,28.9429424 19.2873462,28.3943661 21.3166918,27.3581664 L27.8421924,29.7109492 L26.3110693,22.9939372 C27.7449782,20.945919 28.6199057,18.4712304 28.7414234,15.7893019 C29.0695211,8.24333013 23.2366715,1.86765451 15.7268776,1.53850873 Z M8.1441731,13.3389944 C9.14061824,13.3389944 9.95478684,14.1557636 9.95478684,15.1553915 C9.95478684,16.1550194 9.14061824,16.9717885 8.1441731,16.9717885 C7.14772795,16.9717885 6.33355936,16.1550194 6.33355936,15.1553915 C6.33355936,14.1557636 7.14772795,13.3389944 8.1441731,13.3389944 Z M15.0828338,13.3389944 C16.0792789,13.3389944 16.8934475,14.1557636 16.8934475,15.1553915 C16.8934475,16.1550194 16.0792789,16.9717885 15.0828338,16.9717885 C14.0863887,16.9717885 13.2722201,16.1550194 13.2722201,15.1553915 C13.2722201,14.1557636 14.0863887,13.3389944 15.0828338,13.3389944 Z M22.0214945,13.3389944 C23.0179397,13.3389944 23.8321082,14.1557636 23.8321082,15.1553915 C23.8321082,16.1550194 23.0179397,16.9717885 22.0214945,16.9717885 C21.0250494,16.9717885 20.2108808,16.1550194 20.2108808,15.1553915 C20.2108808,14.1557636 21.0250494,13.3389944 22.0214945,13.3389944 Z"/></clipPath><clipPath id="R"><path d="M0.0146389246,14.5214811 C0.367040256,6.15874021 7.4515222,-0.351031848 15.7876365,0.0146856832 C24.1237507,0.36821263 30.6127959,7.47532332 30.2482428,15.8380642 C30.1388769,18.483421 29.3368601,21.0434437 27.9272548,23.2743207 L29.3125565,29.3574223 C29.4340742,29.893808 29.2517977,30.4667654 28.8386375,30.832483 C28.546995,31.1006758 28.1581384,31.2225817 27.7692818,31.2103911 C27.6113087,31.2103911 27.4654875,31.1738193 27.3196663,31.125057 L21.4017542,28.9917047 C19.2387392,29.9791421 16.8569922,30.4545749 14.4752453,30.3448596 C6.13913104,29.9913327 -0.349914177,22.884222 0.0146389246,14.5214811 Z M15.7268776,1.52631815 C8.20493195,1.19717237 1.8495562,7.04865286 1.52145841,14.582434 C1.19336062,22.1284057 7.02621025,28.5040814 14.5360042,28.8332271 C16.9785099,28.9429424 19.2873462,28.3943661 21.3166918,27.3581664 L27.8421924,29.7109492 L26.3110693,22.9939372 C27.7449782,20.945919 28.6199057,18.4712304 28.7414234,15.7893019 C29.0695211,8.24333013 23.2366715,1.86765451 15.7268776,1.53850873 Z M8.1441731,13.3389944 C9.14061824,13.3389944 9.95478684,14.1557636 9.95478684,15.1553915 C9.95478684,16.1550194 9.14061824,16.9717885 8.1441731,16.9717885 C7.14772795,16.9717885 6.33355936,16.1550194 6.33355936,15.1553915 C6.33355936,14.1557636 7.14772795,13.3389944 8.1441731,13.3389944 Z M15.0828338,13.3389944 C16.0792789,13.3389944 16.8934475,14.1557636 16.8934475,15.1553915 C16.8934475,16.1550194 16.0792789,16.9717885 15.0828338,16.9717885 C14.0863887,16.9717885 13.2722201,16.1550194 13.2722201,15.1553915 C13.2722201,14.1557636 14.0863887,13.3389944 15.0828338,13.3389944 Z M22.0214945,13.3389944 C23.0179397,13.3389944 23.8321082,14.1557636 23.8321082,15.1553915 C23.8321082,16.1550194 23.0179397,16.9717885 22.0214945,16.9717885 C21.0250494,16.9717885 20.2108808,16.1550194 20.2108808,15.1553915 C20.2108808,14.1557636 21.0250494,13.3389944 22.0214945,13.3389944 Z"/></clipPath><clipPath id="T"><path d="M0.0146647984,14.5093165 C0.3792179,6.14657558 7.45154808,-0.351005892 15.7755106,0.0147116396 L15.7876623,0.0147116396 L16.1033198,0.0318232206 C24.2866524,0.560248592 30.5960555,7.58105244 30.2361169,15.8258996 C30.1145992,18.483447 29.3247342,21.0312791 27.9151289,23.262156 L29.3004307,29.3330671 C29.4219484,29.8816433 29.2396718,30.4424102 28.8265116,30.8081278 C28.5227174,31.0763206 28.1460125,31.1982265 27.7571559,31.1860359 C27.5991828,31.1860359 27.4533616,31.1494641 27.3075404,31.1007018 L21.3896283,28.9673495 C19.2266133,29.9547869 16.8448663,30.4302196 14.4631194,30.3205044 C6.12700514,29.9547869 -0.349888304,22.8598667 0.0146647984,14.5093165 Z M15.7147517,1.5263441 C8.21710959,1.19719832 1.86173385,7.03648824 1.53363606,14.5702694 C1.20553826,22.0918599 7.02623613,28.4675356 14.53603,28.7966813 C16.966384,28.9063966 19.2752203,28.3578203 21.304566,27.3216206 L27.8179147,29.6622128 L26.2867917,22.9573914 C27.7207005,20.8971827 28.595628,18.4346846 28.7171457,15.7527561 C29.0452435,8.23116551 23.2245456,1.85548988 15.7147517,1.5263441 Z M8.1320472,13.3268298 C9.12849235,13.3268298 9.94266094,14.1435989 9.94266094,15.1432268 C9.94266094,16.1428548 9.12849235,16.9596239 8.1320472,16.9596239 C7.13560206,16.9596239 6.32143346,16.1428548 6.32143346,15.1432268 C6.32143346,14.1435989 7.13560206,13.3268298 8.1320472,13.3268298 Z M15.0585561,13.3268298 C16.0550013,13.3268298 16.8691699,14.1435989 16.8691699,15.1432268 C16.8691699,16.1428548 16.0550013,16.9596239 15.0585561,16.9596239 C14.062111,16.9596239 13.2479424,16.1428548 13.2479424,15.1432268 C13.2479424,14.1435989 14.062111,13.3268298 15.0585561,13.3268298 Z M21.9850651,13.3268298 C22.9815102,13.3268298 23.7956788,14.1435989 23.7956788,15.1432268 C23.7956788,16.1428548 22.9815102,16.9596239 21.9850651,16.9596239 C20.9886199,16.9596239 20.1744513,16.1428548 20.1744513,15.1432268 C20.1744513,14.1435989 20.9886199,13.3268298 21.9850651,13.3268298 Z"/></clipPath><clipPath id="V"><path d="M0.0146647984,14.5093165 C0.3792179,6.14657558 7.45154808,-0.351005892 15.7755106,0.0147116396 L15.7876623,0.0147116396 L16.1033198,0.0318232206 C24.2866524,0.560248592 30.5960555,7.58105244 30.2361169,15.8258996 C30.1145992,18.483447 29.3247342,21.0312791 27.9151289,23.262156 L29.3004307,29.3330671 C29.4219484,29.8816433 29.2396718,30.4424102 28.8265116,30.8081278 C28.5227174,31.0763206 28.1460125,31.1982265 27.7571559,31.1860359 C27.5991828,31.1860359 27.4533616,31.1494641 27.3075404,31.1007018 L21.3896283,28.9673495 C19.2266133,29.9547869 16.8448663,30.4302196 14.4631194,30.3205044 C6.12700514,29.9547869 -0.349888304,22.8598667 0.0146647984,14.5093165 Z M15.7147517,1.5263441 C8.21710959,1.19719832 1.86173385,7.03648824 1.53363606,14.5702694 C1.20553826,22.0918599 7.02623613,28.4675356 14.53603,28.7966813 C16.966384,28.9063966 19.2752203,28.3578203 21.304566,27.3216206 L27.8179147,29.6622128 L26.2867917,22.9573914 C27.7207005,20.8971827 28.595628,18.4346846 28.7171457,15.7527561 C29.0452435,8.23116551 23.2245456,1.85548988 15.7147517,1.5263441 Z M8.1320472,13.3268298 C9.12849235,13.3268298 9.94266094,14.1435989 9.94266094,15.1432268 C9.94266094,16.1428548 9.12849235,16.9596239 8.1320472,16.9596239 C7.13560206,16.9596239 6.32143346,16.1428548 6.32143346,15.1432268 C6.32143346,14.1435989 7.13560206,13.3268298 8.1320472,13.3268298 Z M15.0585561,13.3268298 C16.0550013,13.3268298 16.8691699,14.1435989 16.8691699,15.1432268 C16.8691699,16.1428548 16.0550013,16.9596239 15.0585561,16.9596239 C14.062111,16.9596239 13.2479424,16.1428548 13.2479424,15.1432268 C13.2479424,14.1435989 14.062111,13.3268298 15.0585561,13.3268298 Z M21.9850651,13.3268298 C22.9815102,13.3268298 23.7956788,14.1435989 23.7956788,15.1432268 C23.7956788,16.1428548 22.9815102,16.9596239 21.9850651,16.9596239 C20.9886199,16.9596239 20.1744513,16.1428548 20.1744513,15.1432268 C20.1744513,14.1435989 20.9886199,13.3268298 21.9850651,13.3268298 Z"/></clipPath><clipPath id="W"><path d="M14.6115959,0.0146847449 C23.0262328,-0.351009419 30.1651814,6.15834669 30.5331684,14.5205532 C30.9011554,22.8827598 24.3509862,29.9772265 15.9363493,30.3429207 C13.5321673,30.4404392 11.1279853,29.9772265 8.94459557,28.9898523 L2.97093934,31.1230683 C2.82374453,31.1718275 2.66428348,31.2083969 2.51708867,31.2083969 C2.12456916,31.2327765 1.74431589,31.0986886 1.43766003,30.8305129 C1.02060805,30.4648188 0.836614532,29.8918979 0.959276878,29.3555465 L2.35762762,23.2728335 C0.934744409,21.0420991 0.125172928,18.48224 0.014776817,15.8370522 C-0.35321022,7.47484568 6.19695903,0.380378908 14.6115959,0.0146847449 Z M29.0121553,14.5693125 C28.680967,7.03601268 22.2534601,1.18490607 14.6729271,1.51403082 L14.6729271,1.52622062 C7.09239415,1.85534537 1.20460157,8.24280342 1.5357899,15.7761032 C1.65845225,18.4578604 2.55388737,20.9323909 3.98903681,22.9802782 L2.44349126,29.696861 L9.03045921,27.3442286 C11.0789204,28.380362 13.409505,28.9289033 15.8750181,28.819195 C23.4555511,28.4900703 29.3433436,22.1026122 29.0121553,14.5693125 Z M22.3270575,13.3381421 C23.3328887,13.3381421 24.1547264,14.1548591 24.1547264,15.1544231 C24.1547264,16.1539872 23.3328887,16.9707041 22.3270575,16.9707041 C21.3212262,16.9707041 20.4993885,16.1539872 20.4993885,15.1544231 C20.4993885,14.1548591 21.3212262,13.3381421 22.3270575,13.3381421 Z M15.3230375,13.3381421 C16.3288688,13.3381421 17.1507065,14.1548591 17.1507065,15.1544231 C17.1507065,16.1539872 16.3288688,16.9707041 15.3230375,16.9707041 C14.3172063,16.9707041 13.4953686,16.1539872 13.4953686,15.1544231 C13.4953686,14.1548591 14.3172063,13.3381421 15.3230375,13.3381421 Z M8.31901761,13.3381421 C9.32484884,13.3381421 10.1466866,14.1548591 10.1466866,15.1544231 C10.1466866,16.1539872 9.32484884,16.9707041 8.31901761,16.9707041 C7.31318638,16.9707041 6.49134866,16.1539872 6.49134866,15.1544231 C6.49134866,14.1548591 7.31318638,13.3381421 8.31901761,13.3381421 Z"/></clipPath><clipPath id="Y"><path d="M0.0146389246,14.5214811 C0.367040256,6.15874021 7.4515222,-0.351031848 15.7876365,0.0146856832 C24.1237507,0.36821263 30.6127959,7.47532332 30.2482428,15.8380642 C30.1388769,18.483421 29.3368601,21.0434437 27.9272548,23.2743207 L29.3125565,29.3574223 C29.4340742,29.893808 29.2517977,30.4667654 28.8386375,30.832483 C28.546995,31.1006758 28.1581384,31.2225817 27.7692818,31.2103911 C27.6113087,31.2103911 27.4654875,31.1738193 27.3196663,31.125057 L21.4017542,28.9917047 C19.2387392,29.9791421 16.8569922,30.4545749 14.4752453,30.3448596 C6.13913104,29.9913327 -0.349914177,22.884222 0.0146389246,14.5214811 Z M15.7268776,1.52631815 C8.20493195,1.19717237 1.8495562,7.04865286 1.52145841,14.582434 C1.19336062,22.1284057 7.02621025,28.5040814 14.5360042,28.8332271 C16.9785099,28.9429424 19.2873462,28.3943661 21.3166918,27.3581664 L27.8421924,29.7109492 L26.3110693,22.9939372 C27.7449782,20.945919 28.6199057,18.4712304 28.7414234,15.7893019 C29.0695211,8.24333013 23.2366715,1.86765451 15.7268776,1.53850873 Z M8.1441731,13.3389944 C9.14061824,13.3389944 9.95478684,14.1557636 9.95478684,15.1553915 C9.95478684,16.1550194 9.14061824,16.9717885 8.1441731,16.9717885 C7.14772795,16.9717885 6.33355936,16.1550194 6.33355936,15.1553915 C6.33355936,14.1557636 7.14772795,13.3389944 8.1441731,13.3389944 Z M15.0828338,13.3389944 C16.0792789,13.3389944 16.8934475,14.1557636 16.8934475,15.1553915 C16.8934475,16.1550194 16.0792789,16.9717885 15.0828338,16.9717885 C14.0863887,16.9717885 13.2722201,16.1550194 13.2722201,15.1553915 C13.2722201,14.1557636 14.0863887,13.3389944 15.0828338,13.3389944 Z M22.0214945,13.3389944 C23.0179397,13.3389944 23.8321082,14.1557636 23.8321082,15.1553915 C23.8321082,16.1550194 23.0179397,16.9717885 22.0214945,16.9717885 C21.0250494,16.9717885 20.2108808,16.1550194 20.2108808,15.1553915 C20.2108808,14.1557636 21.0250494,13.3389944 22.0214945,13.3389944 Z"/></clipPath><clipPath id="aa"><path d="M0.0146389246,14.5214811 C0.367040256,6.15874021 7.4515222,-0.351031848 15.7876365,0.0146856832 C24.1237507,0.36821263 30.6127959,7.47532332 30.2482428,15.8380642 C30.1388769,18.483421 29.3368601,21.0434437 27.9272548,23.2743207 L29.3125565,29.3574223 C29.4340742,29.893808 29.2517977,30.4667654 28.8386375,30.832483 C28.546995,31.1006758 28.1581384,31.2225817 27.7692818,31.2103911 C27.6113087,31.2103911 27.4654875,31.1738193 27.3196663,31.125057 L21.4017542,28.9917047 C19.2387392,29.9791421 16.8569922,30.4545749 14.4752453,30.3448596 C6.13913104,29.9913327 -0.349914177,22.884222 0.0146389246,14.5214811 Z M15.7268776,1.52631815 C8.20493195,1.19717237 1.8495562,7.03646228 1.52145841,14.582434 C1.19336062,22.1284057 7.02621025,28.5040814 14.5360042,28.8332271 C16.9785099,28.9429424 19.2873462,28.3943661 21.3166918,27.3581664 L27.8421924,29.7109492 L26.3110693,22.9939372 C27.7449782,20.945919 28.6199057,18.4712304 28.7414234,15.7893019 C29.0695211,8.24333013 23.2366715,1.86765451 15.7268776,1.53850873 Z M8.1441731,13.3389944 C9.14061824,13.3389944 9.95478684,14.1557636 9.95478684,15.1553915 C9.95478684,16.1550194 9.14061824,16.9717885 8.1441731,16.9717885 C7.14772795,16.9717885 6.33355936,16.1550194 6.33355936,15.1553915 C6.33355936,14.1557636 7.14772795,13.3389944 8.1441731,13.3389944 Z M15.0828338,13.3389944 C16.0792789,13.3389944 16.8934475,14.1557636 16.8934475,15.1553915 C16.8934475,16.1550194 16.0792789,16.9717885 15.0828338,16.9717885 C14.0863887,16.9717885 13.2722201,16.1550194 13.2722201,15.1553915 C13.2722201,14.1557636 14.0863887,13.3389944 15.0828338,13.3389944 Z M22.0214945,13.3389944 C23.0179397,13.3389944 23.8321082,14.1557636 23.8321082,15.1553915 C23.8321082,16.1550194 23.0179397,16.9717885 22.0214945,16.9717885 C21.0250494,16.9717885 20.2108808,16.1550194 20.2108808,15.1553915 C20.2108808,14.1557636 21.0250494,13.3389944 22.0214945,13.3389944 Z"/></clipPath><clipPath id="ac"><path d="M0.0146647984,14.5093165 C0.3792179,6.14657558 7.45154808,-0.351005892 15.7755106,0.0147116396 L15.7876623,0.0147116396 L16.1033198,0.0318232206 C24.2866524,0.560248592 30.5960555,7.58105244 30.2361169,15.8258996 C30.1145992,18.483447 29.3247342,21.0312791 27.9151289,23.262156 L29.3004307,29.3330671 C29.4219484,29.8816433 29.2396718,30.4424102 28.8265116,30.8081278 C28.5227174,31.0763206 28.1460125,31.1982265 27.7571559,31.1860359 C27.5991828,31.1860359 27.4533616,31.1494641 27.3075404,31.1007018 L21.3896283,28.9673495 C19.2266133,29.9547869 16.8448663,30.4302196 14.4631194,30.3205044 C6.12700514,29.9547869 -0.349888304,22.8598667 0.0146647984,14.5093165 Z M15.7147517,1.5263441 C8.21710959,1.19719832 1.86173385,7.03648824 1.53363606,14.5702694 C1.20553826,22.0918599 7.02623613,28.4675356 14.53603,28.7966813 C16.966384,28.9063966 19.2752203,28.3578203 21.304566,27.3216206 L27.8179147,29.6622128 L26.2867917,22.9573914 C27.7207005,20.8971827 28.595628,18.4346846 28.7171457,15.7527561 C29.0452435,8.23116551 23.2245456,1.85548988 15.7147517,1.5263441 Z M8.1320472,13.3268298 C9.12849235,13.3268298 9.94266094,14.1435989 9.94266094,15.1432268 C9.94266094,16.1428548 9.12849235,16.9596239 8.1320472,16.9596239 C7.13560206,16.9596239 6.32143346,16.1428548 6.32143346,15.1432268 C6.32143346,14.1435989 7.13560206,13.3268298 8.1320472,13.3268298 Z M15.0585561,13.3268298 C16.0550013,13.3268298 16.8691699,14.1435989 16.8691699,15.1432268 C16.8691699,16.1428548 16.0550013,16.9596239 15.0585561,16.9596239 C14.062111,16.9596239 13.2479424,16.1428548 13.2479424,15.1432268 C13.2479424,14.1435989 14.062111,13.3268298 15.0585561,13.3268298 Z M21.9850651,13.3268298 C22.9815102,13.3268298 23.7956788,14.1435989 23.7956788,15.1432268 C23.7956788,16.1428548 22.9815102,16.9596239 21.9850651,16.9596239 C20.9886199,16.9596239 20.1744513,16.1428548 20.1744513,15.1432268 C20.1744513,14.1435989 20.9886199,13.3268298 21.9850651,13.3268298 Z"/></clipPath><clipPath id="ae"><path d="M14.9320777,0.00418756792 C23.2006983,-0.18813463 30.169629,6.26761783 30.5331622,14.5197051 C30.9012971,22.8762492 24.3484967,29.9762619 15.9427509,30.3422419 C13.5376032,30.4398366 11.1324555,29.9762619 8.94818873,28.9881158 L2.97213297,31.1229993 C2.82487903,31.1717967 2.66535392,31.2083947 2.51809998,31.2083947 C2.12542281,31.2327934 1.74501679,31.0986007 1.43823775,30.8302153 C1.02101825,30.4642353 0.836950826,29.8908666 0.959662444,29.3540958 L2.35857488,23.2788273 C0.93512012,21.0463491 0.125223446,18.4844888 0.0147829905,15.8372333 C-0.353351861,7.48068915 6.1994485,0.380676495 14.6051943,0.0146964606 L14.6174655,0.0146964606 Z M28.9869958,14.5807018 C28.6679456,7.04151311 22.250128,1.1980319 14.6665501,1.52741393 C7.08297215,1.84459663 1.20508568,8.22484856 1.53640705,15.7640373 C1.65911866,18.4478908 2.55491347,20.9243557 3.99063939,22.9738439 L2.44447301,29.6834779 L9.0218157,27.3412057 C11.0710997,28.3781491 13.4026204,28.9271191 15.8568528,28.8173251 C23.4404307,28.5001424 29.3183172,22.1198905 28.9869958,14.5807018 Z M22.323755,13.3363697 C23.3299903,13.3363697 24.1521581,14.1537251 24.1521581,15.1540705 C24.1521581,16.154416 23.3299903,16.9717714 22.323755,16.9717714 C21.3175198,16.9717714 20.4953519,16.154416 20.4953519,15.1540705 C20.4953519,14.1537251 21.3175198,13.3363697 22.323755,13.3363697 Z M15.3291928,13.3363697 C16.3354281,13.3363697 17.1575959,14.1537251 17.1575959,15.1540705 C17.1575959,16.154416 16.3354281,16.9717714 15.3291928,16.9717714 C14.3229576,16.9717714 13.5007897,16.154416 13.5007897,15.1540705 C13.5007897,14.1537251 14.3229576,13.3363697 15.3291928,13.3363697 Z M8.33463064,13.3363697 C9.34086591,13.3363697 10.1630337,14.1537251 10.1630337,15.1540705 C10.1630337,16.154416 9.34086591,16.9717714 8.33463064,16.9717714 C7.32839538,16.9717714 6.50622755,16.154416 6.50622755,15.1540705 C6.50622755,14.1537251 7.32839538,13.3363697 8.33463064,13.3363697 Z"/></clipPath><clipPath id="ag"><path d="M14.9320777,0.00418756792 C23.2006983,-0.18813463 30.169629,6.26761783 30.5331622,14.5197051 C30.9012971,22.8762492 24.3484967,29.9762619 15.9427509,30.3422419 C13.5376032,30.4398366 11.1324555,29.9762619 8.94818873,28.9881158 L2.97213297,31.1229993 C2.82487903,31.1717967 2.66535392,31.2083947 2.51809998,31.2083947 C2.12542281,31.2327934 1.74501679,31.0986007 1.43823775,30.8302153 C1.02101825,30.4642353 0.836950826,29.8908666 0.959662444,29.3540958 L2.35857488,23.2788273 C0.93512012,21.0463491 0.125223446,18.4844888 0.0147829905,15.8372333 C-0.353351861,7.48068915 6.1994485,0.380676495 14.6051943,0.0146964606 L14.6174655,0.0146964606 Z M28.9869958,14.5807018 C28.6679456,7.04151311 22.250128,1.1980319 14.6665501,1.52741393 C7.08297215,1.84459663 1.20508568,8.22484856 1.53640705,15.7640373 C1.65911866,18.4478908 2.55491347,20.9243557 3.99063939,22.9738439 L2.44447301,29.6834779 L9.0218157,27.3412057 C11.0710997,28.3781491 13.4026204,28.9271191 15.8568528,28.8173251 C23.4404307,28.5001424 29.3183172,22.1198905 28.9869958,14.5807018 Z M22.323755,13.3363697 C23.3299903,13.3363697 24.1521581,14.1537251 24.1521581,15.1540705 C24.1521581,16.154416 23.3299903,16.9717714 22.323755,16.9717714 C21.3175198,16.9717714 20.4953519,16.154416 20.4953519,15.1540705 C20.4953519,14.1537251 21.3175198,13.3363697 22.323755,13.3363697 Z M15.3291928,13.3363697 C16.3354281,13.3363697 17.1575959,14.1537251 17.1575959,15.1540705 C17.1575959,16.154416 16.3354281,16.9717714 15.3291928,16.9717714 C14.3229576,16.9717714 13.5007897,16.154416 13.5007897,15.1540705 C13.5007897,14.1537251 14.3229576,13.3363697 15.3291928,13.3363697 Z M8.33463064,13.3363697 C9.34086591,13.3363697 10.1630337,14.1537251 10.1630337,15.1540705 C10.1630337,16.154416 9.34086591,16.9717714 8.33463064,16.9717714 C7.32839538,16.9717714 6.50622755,16.154416 6.50622755,15.1540705 C6.50622755,14.1537251 7.32839538,13.3363697 8.33463064,13.3363697 Z"/></clipPath><clipPath id="ai"><path d="M14.6115959,0.0146847449 C23.0262328,-0.351009419 30.1651814,6.15834669 30.5331684,14.5205532 C30.9011554,22.8827598 24.3509862,29.9772265 15.9363493,30.3429207 C13.5321673,30.4404392 11.1279853,29.9772265 8.94459557,28.9898523 L2.97093934,31.1230683 C2.82374453,31.1718275 2.66428348,31.2083969 2.51708867,31.2083969 C2.12456916,31.2327765 1.74431589,31.0986886 1.43766003,30.8305129 C1.02060805,30.4648188 0.836614532,29.8918979 0.959276878,29.3555465 L2.35762762,23.2728335 C0.934744409,21.0420991 0.125172928,18.48224 0.014776817,15.8370522 C-0.35321022,7.47484568 6.19695903,0.380378908 14.6115959,0.0146847449 Z M29.0121553,14.5693125 C28.680967,7.03601268 22.2534601,1.18490607 14.6729271,1.51403082 L14.6729271,1.52622062 C7.09239415,1.85534537 1.20460157,8.24280342 1.5357899,15.7761032 C1.65845225,18.4578604 2.55388737,20.9323909 3.98903681,22.9802782 L2.44349126,29.696861 L9.03045921,27.3442286 C11.0789204,28.380362 13.409505,28.9289033 15.8750181,28.819195 C23.4555511,28.4900703 29.3433436,22.1026122 29.0121553,14.5693125 Z M22.3270575,13.3381421 C23.3328887,13.3381421 24.1547264,14.1548591 24.1547264,15.1544231 C24.1547264,16.1539872 23.3328887,16.9707041 22.3270575,16.9707041 C21.3212262,16.9707041 20.4993885,16.1539872 20.4993885,15.1544231 C20.4993885,14.1548591 21.3212262,13.3381421 22.3270575,13.3381421 Z M15.3230375,13.3381421 C16.3288688,13.3381421 17.1507065,14.1548591 17.1507065,15.1544231 C17.1507065,16.1539872 16.3288688,16.9707041 15.3230375,16.9707041 C14.3172063,16.9707041 13.4953686,16.1539872 13.4953686,15.1544231 C13.4953686,14.1548591 14.3172063,13.3381421 15.3230375,13.3381421 Z M8.31901761,13.3381421 C9.32484884,13.3381421 10.1466866,14.1548591 10.1466866,15.1544231 C10.1466866,16.1539872 9.32484884,16.9707041 8.31901761,16.9707041 C7.31318638,16.9707041 6.49134866,16.1539872 6.49134866,15.1544231 C6.49134866,14.1548591 7.31318638,13.3381421 8.31901761,13.3381421 Z"/></clipPath><clipPath id="ak"><path d="M14.6115959,0.0146847449 C23.0262328,-0.351009419 30.1651814,6.15834669 30.5331684,14.5205532 C30.9011554,22.8827598 24.3509862,29.9772265 15.9363493,30.3429207 C13.5321673,30.4404392 11.1279853,29.9772265 8.94459557,28.9898523 L2.97093934,31.1230683 C2.82374453,31.1718275 2.66428348,31.2083969 2.51708867,31.2083969 C2.12456916,31.2327765 1.74431589,31.0986886 1.43766003,30.8305129 C1.02060805,30.4648188 0.836614532,29.8918979 0.959276878,29.3555465 L2.35762762,23.2728335 C0.934744409,21.0420991 0.125172928,18.48224 0.014776817,15.8370522 C-0.35321022,7.47484568 6.19695903,0.380378908 14.6115959,0.0146847449 Z M29.0121553,14.5693125 C28.680967,7.03601268 22.2534601,1.18490607 14.6729271,1.51403082 L14.6729271,1.52622062 C7.09239415,1.85534537 1.20460157,8.24280342 1.5357899,15.7761032 C1.65845225,18.4578604 2.55388737,20.9323909 3.98903681,22.9802782 L2.44349126,29.696861 L9.03045921,27.3442286 C11.0789204,28.380362 13.409505,28.9289033 15.8750181,28.819195 C23.4555511,28.4900703 29.3433436,22.1026122 29.0121553,14.5693125 Z M22.3270575,13.3381421 C23.3328887,13.3381421 24.1547264,14.1548591 24.1547264,15.1544231 C24.1547264,16.1539872 23.3328887,16.9707041 22.3270575,16.9707041 C21.3212262,16.9707041 20.4993885,16.1539872 20.4993885,15.1544231 C20.4993885,14.1548591 21.3212262,13.3381421 22.3270575,13.3381421 Z M15.3230375,13.3381421 C16.3288688,13.3381421 17.1507065,14.1548591 17.1507065,15.1544231 C17.1507065,16.1539872 16.3288688,16.9707041 15.3230375,16.9707041 C14.3172063,16.9707041 13.4953686,16.1539872 13.4953686,15.1544231 C13.4953686,14.1548591 14.3172063,13.3381421 15.3230375,13.3381421 Z M8.31901761,13.3381421 C9.32484884,13.3381421 10.1466866,14.1548591 10.1466866,15.1544231 C10.1466866,16.1539872 9.32484884,16.9707041 8.31901761,16.9707041 C7.31318638,16.9707041 6.49134866,16.1539872 6.49134866,15.1544231 C6.49134866,14.1548591 7.31318638,13.3381421 8.31901761,13.3381421 Z"/></clipPath><clipPath id="am"><path d="M14.9320777,0.00418756792 C23.2006983,-0.18813463 30.169629,6.26761783 30.5331622,14.5197051 C30.9012971,22.8762492 24.3484967,29.9762619 15.9427509,30.3422419 C13.5376032,30.4398366 11.1324555,29.9762619 8.94818873,28.9881158 L2.97213297,31.1229993 C2.82487903,31.1717967 2.66535392,31.2083947 2.51809998,31.2083947 C2.12542281,31.2327934 1.74501679,31.0986007 1.43823775,30.8302153 C1.02101825,30.4642353 0.836950826,29.8908666 0.959662444,29.3540958 L2.35857488,23.2788273 C0.93512012,21.0463491 0.125223446,18.4844888 0.0147829905,15.8372333 C-0.353351861,7.48068915 6.1994485,0.380676495 14.6051943,0.0146964606 L14.6174655,0.0146964606 Z M28.9869958,14.5807018 C28.6679456,7.04151311 22.250128,1.1980319 14.6665501,1.52741393 C7.08297215,1.84459663 1.20508568,8.22484856 1.53640705,15.7640373 C1.65911866,18.4478908 2.55491347,20.9243557 3.99063939,22.9738439 L2.44447301,29.6834779 L9.0218157,27.3412057 C11.0710997,28.3781491 13.4026204,28.9271191 15.8568528,28.8173251 C23.4404307,28.5001424 29.3183172,22.1198905 28.9869958,14.5807018 Z M22.323755,13.3363697 C23.3299903,13.3363697 24.1521581,14.1537251 24.1521581,15.1540705 C24.1521581,16.154416 23.3299903,16.9717714 22.323755,16.9717714 C21.3175198,16.9717714 20.4953519,16.154416 20.4953519,15.1540705 C20.4953519,14.1537251 21.3175198,13.3363697 22.323755,13.3363697 Z M15.3291928,13.3363697 C16.3354281,13.3363697 17.1575959,14.1537251 17.1575959,15.1540705 C17.1575959,16.154416 16.3354281,16.9717714 15.3291928,16.9717714 C14.3229576,16.9717714 13.5007897,16.154416 13.5007897,15.1540705 C13.5007897,14.1537251 14.3229576,13.3363697 15.3291928,13.3363697 Z M8.33463064,13.3363697 C9.34086591,13.3363697 10.1630337,14.1537251 10.1630337,15.1540705 C10.1630337,16.154416 9.34086591,16.9717714 8.33463064,16.9717714 C7.32839538,16.9717714 6.50622755,16.154416 6.50622755,15.1540705 C6.50622755,14.1537251 7.32839538,13.3363697 8.33463064,13.3363697 Z"/></clipPath><clipPath id="ao"><path d="M14.9320777,0.00418756792 C23.2006983,-0.18813463 30.169629,6.26761783 30.5331622,14.5197051 C30.9012971,22.8762492 24.3484967,29.9762619 15.9427509,30.3422419 C13.5376032,30.4398366 11.1324555,29.9762619 8.94818873,28.9881158 L2.97213297,31.1229993 C2.82487903,31.1717967 2.66535392,31.2083947 2.51809998,31.2083947 C2.12542281,31.2327934 1.74501679,31.0986007 1.43823775,30.8302153 C1.02101825,30.4642353 0.836950826,29.8908666 0.959662444,29.3540958 L2.35857488,23.2788273 C0.93512012,21.0463491 0.125223446,18.4844888 0.0147829905,15.8372333 C-0.353351861,7.48068915 6.1994485,0.380676495 14.6051943,0.0146964606 L14.6174655,0.0146964606 Z M28.9869958,14.5807018 C28.6679456,7.04151311 22.250128,1.1980319 14.6665501,1.52741393 C7.08297215,1.84459663 1.20508568,8.22484856 1.53640705,15.7640373 C1.65911866,18.4478908 2.55491347,20.9243557 3.99063939,22.9738439 L2.44447301,29.6834779 L9.0218157,27.3412057 C11.0710997,28.3781491 13.4026204,28.9271191 15.8568528,28.8173251 C23.4404307,28.5001424 29.3183172,22.1198905 28.9869958,14.5807018 Z M22.323755,13.3363697 C23.3299903,13.3363697 24.1521581,14.1537251 24.1521581,15.1540705 C24.1521581,16.154416 23.3299903,16.9717714 22.323755,16.9717714 C21.3175198,16.9717714 20.4953519,16.154416 20.4953519,15.1540705 C20.4953519,14.1537251 21.3175198,13.3363697 22.323755,13.3363697 Z M15.3291928,13.3363697 C16.3354281,13.3363697 17.1575959,14.1537251 17.1575959,15.1540705 C17.1575959,16.154416 16.3354281,16.9717714 15.3291928,16.9717714 C14.3229576,16.9717714 13.5007897,16.154416 13.5007897,15.1540705 C13.5007897,14.1537251 14.3229576,13.3363697 15.3291928,13.3363697 Z M8.33463064,13.3363697 C9.34086591,13.3363697 10.1630337,14.1537251 10.1630337,15.1540705 C10.1630337,16.154416 9.34086591,16.9717714 8.33463064,16.9717714 C7.32839538,16.9717714 6.50622755,16.154416 6.50622755,15.1540705 C6.50622755,14.1537251 7.32839538,13.3363697 8.33463064,13.3363697 Z"/></clipPath><clipPath id="aq"><path d="M14.6115959,0.0146847449 C23.0262328,-0.351009419 30.1651814,6.15834669 30.5331684,14.5205532 C30.9011554,22.8827598 24.3509862,29.9772265 15.9363493,30.3429207 C13.5321673,30.4404392 11.1279853,29.9772265 8.94459557,28.9898523 L2.97093934,31.1230683 C2.82374453,31.1718275 2.66428348,31.2083969 2.51708867,31.2083969 C2.12456916,31.2327765 1.74431589,31.0986886 1.43766003,30.8305129 C1.02060805,30.4648188 0.836614532,29.8918979 0.959276878,29.3555465 L2.35762762,23.2728335 C0.934744409,21.0420991 0.125172928,18.48224 0.014776817,15.8370522 C-0.35321022,7.47484568 6.19695903,0.380378908 14.6115959,0.0146847449 Z M29.0121553,14.5693125 C28.680967,7.03601268 22.2534601,1.18490607 14.6729271,1.51403082 L14.6729271,1.52622062 C7.09239415,1.85534537 1.20460157,8.24280342 1.5357899,15.7761032 C1.65845225,18.4578604 2.55388737,20.9323909 3.98903681,22.9802782 L2.44349126,29.696861 L9.03045921,27.3442286 C11.0789204,28.380362 13.409505,28.9289033 15.8750181,28.819195 C23.4555511,28.4900703 29.3433436,22.1026122 29.0121553,14.5693125 Z M22.3270575,13.3381421 C23.3328887,13.3381421 24.1547264,14.1548591 24.1547264,15.1544231 C24.1547264,16.1539872 23.3328887,16.9707041 22.3270575,16.9707041 C21.3212262,16.9707041 20.4993885,16.1539872 20.4993885,15.1544231 C20.4993885,14.1548591 21.3212262,13.3381421 22.3270575,13.3381421 Z M15.3230375,13.3381421 C16.3288688,13.3381421 17.1507065,14.1548591 17.1507065,15.1544231 C17.1507065,16.1539872 16.3288688,16.9707041 15.3230375,16.9707041 C14.3172063,16.9707041 13.4953686,16.1539872 13.4953686,15.1544231 C13.4953686,14.1548591 14.3172063,13.3381421 15.3230375,13.3381421 Z M8.31901761,13.3381421 C9.32484884,13.3381421 10.1466866,14.1548591 10.1466866,15.1544231 C10.1466866,16.1539872 9.32484884,16.9707041 8.31901761,16.9707041 C7.31318638,16.9707041 6.49134866,16.1539872 6.49134866,15.1544231 C6.49134866,14.1548591 7.31318638,13.3381421 8.31901761,13.3381421 Z"/></clipPath><clipPath id="as"><path d="M14.6115959,0.0146847449 C23.0262328,-0.351009419 30.1651814,6.15834669 30.5331684,14.5205532 C30.9011554,22.8827598 24.3509862,29.9772265 15.9363493,30.3429207 C13.5321673,30.4404392 11.1279853,29.9772265 8.94459557,28.9898523 L2.97093934,31.1230683 C2.82374453,31.1718275 2.66428348,31.2083969 2.51708867,31.2083969 C2.12456916,31.2327765 1.74431589,31.0986886 1.43766003,30.8305129 C1.02060805,30.4648188 0.836614532,29.8918979 0.959276878,29.3555465 L2.35762762,23.2728335 C0.934744409,21.0420991 0.125172928,18.48224 0.014776817,15.8370522 C-0.35321022,7.47484568 6.19695903,0.380378908 14.6115959,0.0146847449 Z M29.0121553,14.5693125 C28.680967,7.03601268 22.2534601,1.18490607 14.6729271,1.51403082 L14.6729271,1.52622062 C7.09239415,1.85534537 1.20460157,8.24280342 1.5357899,15.7761032 C1.65845225,18.4578604 2.55388737,20.9323909 3.98903681,22.9802782 L2.44349126,29.696861 L9.03045921,27.3442286 C11.0789204,28.380362 13.409505,28.9289033 15.8750181,28.819195 C23.4555511,28.4900703 29.3433436,22.1026122 29.0121553,14.5693125 Z M22.3270575,13.3381421 C23.3328887,13.3381421 24.1547264,14.1548591 24.1547264,15.1544231 C24.1547264,16.1539872 23.3328887,16.9707041 22.3270575,16.9707041 C21.3212262,16.9707041 20.4993885,16.1539872 20.4993885,15.1544231 C20.4993885,14.1548591 21.3212262,13.3381421 22.3270575,13.3381421 Z M15.3230375,13.3381421 C16.3288688,13.3381421 17.1507065,14.1548591 17.1507065,15.1544231 C17.1507065,16.1539872 16.3288688,16.9707041 15.3230375,16.9707041 C14.3172063,16.9707041 13.4953686,16.1539872 13.4953686,15.1544231 C13.4953686,14.1548591 14.3172063,13.3381421 15.3230375,13.3381421 Z M8.31901761,13.3381421 C9.32484884,13.3381421 10.1466866,14.1548591 10.1466866,15.1544231 C10.1466866,16.1539872 9.32484884,16.9707041 8.31901761,16.9707041 C7.31318638,16.9707041 6.49134866,16.1539872 6.49134866,15.1544231 C6.49134866,14.1548591 7.31318638,13.3381421 8.31901761,13.3381421 Z"/></clipPath><clipPath id="au"><path d="M14.9320777,0.00418756792 C23.2006983,-0.18813463 30.169629,6.26761783 30.5331622,14.5197051 C30.9012971,22.8762492 24.3484967,29.9762619 15.9427509,30.3422419 C13.5376032,30.4398366 11.1324555,29.9762619 8.94818873,28.9881158 L2.97213297,31.1229993 C2.82487903,31.1717967 2.66535392,31.2083947 2.51809998,31.2083947 C2.12542281,31.2327934 1.74501679,31.0986007 1.43823775,30.8302153 C1.02101825,30.4642353 0.836950826,29.8908666 0.959662444,29.3540958 L2.35857488,23.2788273 C0.93512012,21.0463491 0.125223446,18.4844888 0.0147829905,15.8372333 C-0.353351861,7.48068915 6.1994485,0.380676495 14.6051943,0.0146964606 L14.6174655,0.0146964606 Z M28.9869958,14.5807018 C28.6679456,7.04151311 22.250128,1.1980319 14.6665501,1.52741393 C7.08297215,1.84459663 1.20508568,8.22484856 1.53640705,15.7640373 C1.65911866,18.4478908 2.55491347,20.9243557 3.99063939,22.9738439 L2.44447301,29.6834779 L9.0218157,27.3412057 C11.0710997,28.3781491 13.4026204,28.9271191 15.8568528,28.8173251 C23.4404307,28.5001424 29.3183172,22.1198905 28.9869958,14.5807018 Z M22.323755,13.3363697 C23.3299903,13.3363697 24.1521581,14.1537251 24.1521581,15.1540705 C24.1521581,16.154416 23.3299903,16.9717714 22.323755,16.9717714 C21.3175198,16.9717714 20.4953519,16.154416 20.4953519,15.1540705 C20.4953519,14.1537251 21.3175198,13.3363697 22.323755,13.3363697 Z M15.3291928,13.3363697 C16.3354281,13.3363697 17.1575959,14.1537251 17.1575959,15.1540705 C17.1575959,16.154416 16.3354281,16.9717714 15.3291928,16.9717714 C14.3229576,16.9717714 13.5007897,16.154416 13.5007897,15.1540705 C13.5007897,14.1537251 14.3229576,13.3363697 15.3291928,13.3363697 Z M8.33463064,13.3363697 C9.34086591,13.3363697 10.1630337,14.1537251 10.1630337,15.1540705 C10.1630337,16.154416 9.34086591,16.9717714 8.33463064,16.9717714 C7.32839538,16.9717714 6.50622755,16.154416 6.50622755,15.1540705 C6.50622755,14.1537251 7.32839538,13.3363697 8.33463064,13.3363697 Z"/></clipPath><linearGradient id="c" x1="4490.376" x2="4459.846" y1="6.493" y2="15.605" gradientUnits="userSpaceOnUse"><stop offset="0%" stop-color="#FFF"/><stop offset="100%" stop-color="#FFF"/></linearGradient><linearGradient id="e" x1="4582.337" x2="4551.781" y1="15.593" y2="15.593" gradientUnits="userSpaceOnUse"><stop offset="0%" stop-color="#FFF"/><stop offset="100%" stop-color="#FFF"/></linearGradient><linearGradient id="g" x1="4676.075" x2="4645.52" y1="15.593" y2="15.593" gradientUnits="userSpaceOnUse"><stop offset="0%" stop-color="#FFF"/><stop offset="100%" stop-color="#FFF"/></linearGradient><linearGradient id="i" x1="4771.681" x2="4741.15" y1="15.605" y2="15.605" gradientUnits="userSpaceOnUse"><stop offset="0%" stop-color="#FFF"/><stop offset="100%" stop-color="#FFF"/></linearGradient><linearGradient id="k" x1=".003" x2="30.558" y1="15.619" y2="15.619" gradientUnits="userSpaceOnUse"><stop offset="0%" stop-color="#FFF"/><stop offset="100%" stop-color="#FFF"/></linearGradient><linearGradient id="m" x1=".003" x2="30.533" y1="15.606" y2="15.606" gradientUnits="userSpaceOnUse"><stop offset="0%" stop-color="#FFF"/><stop offset="100%" stop-color="#FFF"/></linearGradient><linearGradient id="o" x1=".003" x2="30.545" y1="15.606" y2="15.606" gradientUnits="userSpaceOnUse"><stop offset="0%" stop-color="#FFF"/><stop offset="100%" stop-color="#FFF"/></linearGradient><linearGradient id="q" x1=".003" x2="30.545" y1="15.619" y2="15.619" gradientUnits="userSpaceOnUse"><stop offset="0%" stop-color="#FFF"/><stop offset="100%" stop-color="#FFF"/></linearGradient><linearGradient id="s" x1=".003" x2="30.558" y1="15.619" y2="15.619" gradientUnits="userSpaceOnUse"><stop offset="0%" stop-color="#FFF"/><stop offset="100%" stop-color="#FFF"/></linearGradient><linearGradient id="u" x1=".003" x2="30.533" y1="15.606" y2="15.606" gradientUnits="userSpaceOnUse"><stop offset="0%" stop-color="#FFF"/><stop offset="100%" stop-color="#FFF"/></linearGradient><linearGradient id="w" x1=".003" x2="30.533" y1="15.606" y2="15.606" gradientUnits="userSpaceOnUse"><stop offset="0%" stop-color="#FFF"/><stop offset="100%" stop-color="#FFF"/></linearGradient><linearGradient id="y" x1="3832.526" x2="3801.971" y1="15.593" y2="15.593" gradientUnits="userSpaceOnUse"><stop offset="0%" stop-color="#FFF"/><stop offset="100%" stop-color="#FFF"/></linearGradient><linearGradient id="A" x1="3926.24" x2="3895.685" y1="15.593" y2="15.593" gradientUnits="userSpaceOnUse"><stop offset="0%" stop-color="#FFF"/><stop offset="100%" stop-color="#FFF"/></linearGradient><linearGradient id="C" x1="4021.569" x2="3991.026" y1="15.605" y2="15.605" gradientUnits="userSpaceOnUse"><stop offset="0%" stop-color="#FFF"/><stop offset="100%" stop-color="#FFF"/></linearGradient><linearGradient id="E" x1="4115.321" x2="4084.79" y1="15.605" y2="15.605" gradientUnits="userSpaceOnUse"><stop offset="0%" stop-color="#FFF"/><stop offset="100%" stop-color="#FFF"/></linearGradient><linearGradient id="G" x1="4207.431" x2="4176.876" y1="15.593" y2="15.593" gradientUnits="userSpaceOnUse"><stop offset="0%" stop-color="#FFF"/><stop offset="100%" stop-color="#FFF"/></linearGradient><linearGradient id="I" x1="4301.145" x2="4270.602" y1="15.593" y2="15.593" gradientUnits="userSpaceOnUse"><stop offset="0%" stop-color="#FFF"/><stop offset="100%" stop-color="#FFF"/></linearGradient><linearGradient id="K" x1="4396.625" x2="4366.082" y1="15.605" y2="15.605" gradientUnits="userSpaceOnUse"><stop offset="0%" stop-color="#FFF"/><stop offset="100%" stop-color="#FFF"/></linearGradient><linearGradient id="M" x1="4490.376" x2="4459.846" y1="15.605" y2="15.605" gradientUnits="userSpaceOnUse"><stop offset="0%" stop-color="#FFF"/><stop offset="100%" stop-color="#FFF"/></linearGradient><linearGradient id="O" x1=".003" x2="30.236" y1="15.594" y2="15.594" gradientUnits="userSpaceOnUse"><stop offset="0%" stop-color="#FFF"/><stop offset="100%" stop-color="#FFF"/></linearGradient><linearGradient id="Q" x1=".002" x2="30.273" y1="15.619" y2="15.619" gradientUnits="userSpaceOnUse"><stop offset="0%" stop-color="#FFF"/><stop offset="100%" stop-color="#FFF"/></linearGradient><linearGradient id="S" x1=".002" x2="30.26" y1="15.619" y2="15.619" gradientUnits="userSpaceOnUse"><stop offset="0%" stop-color="#FFF"/><stop offset="100%" stop-color="#FFF"/></linearGradient><linearGradient id="U" x1=".003" x2="30.248" y1="15.594" y2="15.594" gradientUnits="userSpaceOnUse"><stop offset="0%" stop-color="#FFF"/><stop offset="100%" stop-color="#FFF"/></linearGradient><linearGradient id="X" x1="3832.526" x2="3801.971" y1="15.593" y2="15.593" gradientUnits="userSpaceOnUse"><stop offset="0%" stop-color="#FFF"/><stop offset="100%" stop-color="#FFF"/></linearGradient><linearGradient id="Z" x1="-.01" x2="30.26" y1="15.619" y2="15.619" gradientUnits="userSpaceOnUse"><stop offset="0%" stop-color="#FFF"/><stop offset="100%" stop-color="#FFF"/></linearGradient><linearGradient id="ab" x1=".002" x2="30.273" y1="15.619" y2="15.619" gradientUnits="userSpaceOnUse"><stop offset="0%" stop-color="#FFF"/><stop offset="100%" stop-color="#FFF"/></linearGradient><linearGradient id="ad" x1=".003" x2="30.236" y1="15.594" y2="15.594" gradientUnits="userSpaceOnUse"><stop offset="0%" stop-color="#FFF"/><stop offset="100%" stop-color="#FFF"/></linearGradient><linearGradient id="af" x1="4396.625" x2="4366.082" y1="15.605" y2="15.605" gradientUnits="userSpaceOnUse"><stop offset="0%" stop-color="#FFF"/><stop offset="100%" stop-color="#FFF"/></linearGradient><linearGradient id="ah" x1="4490.376" x2="4459.846" y1="15.605" y2="15.605" gradientUnits="userSpaceOnUse"><stop offset="0%" stop-color="#FFF"/><stop offset="100%" stop-color="#FFF"/></linearGradient><linearGradient id="aj" x1="4582.337" x2="4551.781" y1="15.593" y2="15.593" gradientUnits="userSpaceOnUse"><stop offset="0%" stop-color="#FFF"/><stop offset="100%" stop-color="#FFF"/></linearGradient><linearGradient id="al" x1="4676.075" x2="4645.52" y1="15.593" y2="15.593" gradientUnits="userSpaceOnUse"><stop offset="0%" stop-color="#FFF"/><stop offset="100%" stop-color="#FFF"/></linearGradient><linearGradient id="an" x1="4771.681" x2="4741.15" y1="15.605" y2="15.605" gradientUnits="userSpaceOnUse"><stop offset="0%" stop-color="#FFF"/><stop offset="100%" stop-color="#FFF"/></linearGradient><linearGradient id="ap" x1="4865.457" x2="4834.914" y1="15.605" y2="15.605" gradientUnits="userSpaceOnUse"><stop offset="0%" stop-color="#FFF"/><stop offset="100%" stop-color="#FFF"/></linearGradient><linearGradient id="ar" x1="-.01" x2="30.545" y1="15.593" y2="15.593" gradientUnits="userSpaceOnUse"><stop offset="0%" stop-color="#FFF"/><stop offset="100%" stop-color="#FFF"/></linearGradient><linearGradient id="at" x1="3926.24" x2="3895.685" y1="6.487" y2="6.487" gradientUnits="userSpaceOnUse"><stop offset="0%" stop-color="#FFF"/><stop offset="100%" stop-color="#FFF"/></linearGradient><linearGradient id="av" x1="4021.569" x2="3991.026" y1="6.493" y2="15.605" gradientUnits="userSpaceOnUse"><stop offset="0%" stop-color="#FFF"/><stop offset="100%" stop-color="#FFF"/></linearGradient></defs><g clip-path="url(#a)"><g transform="rotate(-15 84.35 227.394)"><g opacity="25%"><g clip-path="url(#b)" transform="translate(185.197)"><polygon fill="url(#c)" points="0 0 30.548 0 30.548 31.211 0 31.211 0 0"/></g><g clip-path="url(#d)" transform="translate(138.739)"><polygon fill="url(#e)" points="0 0 30.548 0 30.548 31.211 0 31.211 0 0"/></g><g clip-path="url(#f)" transform="translate(92.28)"><polygon fill="url(#g)" points="0 0 30.548 0 30.548 31.211 0 31.211 0 0"/></g><g clip-path="url(#h)" transform="translate(45.822)"><polygon fill="url(#i)" points="2.448 0 30.548 0 30.548 31.211 2.448 31.211 2.448 0"/></g><g clip-path="url(#j)" transform="translate(62.369 40.766)"><polygon fill="url(#k)" points="0 0 30.548 0 30.548 31.211 0 31.211 0 0"/></g><g clip-path="url(#l)" transform="translate(108.827 40.766)"><polygon fill="url(#m)" points="0 0 30.548 0 30.548 31.211 0 31.211 0 0"/></g><g clip-path="url(#n)" transform="translate(155.922 40.766)"><polygon fill="url(#o)" points="0 0 30.548 0 30.548 31.211 0 31.211 0 0"/></g><g clip-path="url(#p)" transform="translate(202.38 40.766)"><polygon fill="url(#q)" points="0 0 30.548 0 30.548 31.211 0 31.211 0 0"/></g><g clip-path="url(#r)" transform="translate(248.202 40.766)"><polygon fill="url(#s)" points="0 0 30.548 0 30.548 31.211 0 31.211 0 0"/></g><g clip-path="url(#t)" transform="translate(294.024 40.766)"><polygon fill="url(#u)" points="0 0 30.548 0 30.548 31.211 0 31.211 0 0"/></g><g clip-path="url(#v)" transform="translate(341.755 40.766)"><polygon fill="url(#w)" points="0 0 30.548 0 30.548 31.211 0 31.211 0 0"/></g><g clip-path="url(#x)" transform="translate(511.042 81.531)"><polygon fill="url(#y)" points="0 0 30.548 0 30.548 31.211 0 31.211 0 0"/></g><g clip-path="url(#z)" transform="translate(463.31 81.531)"><polygon fill="url(#A)" points="0 0 30.548 0 30.548 31.211 0 31.211 0 0"/></g><g clip-path="url(#B)" transform="translate(418.125 80.257)"><polygon fill="url(#C)" points="0 0 30.548 0 30.548 31.211 0 31.211 0 0"/></g><g clip-path="url(#D)" transform="translate(371.03 80.257)"><polygon fill="url(#E)" points="0 0 30.548 0 30.548 31.211 0 31.211 0 0"/></g><g clip-path="url(#F)" transform="translate(324.572 81.531)"><polygon fill="url(#G)" points="0 0 30.548 0 30.548 31.211 0 31.211 0 0"/></g><g clip-path="url(#H)" transform="translate(278.114 81.531)"><polygon fill="url(#I)" points="0 0 30.548 0 30.548 31.211 0 31.211 0 0"/></g><g clip-path="url(#J)" transform="translate(232.292 80.257)"><polygon fill="url(#K)" points="0 0 30.548 0 30.548 31.211 0 31.211 0 0"/></g><g clip-path="url(#L)" transform="translate(185.197 80.257)"><polygon fill="url(#M)" points="0 0 30.548 0 30.548 31.211 0 31.211 0 0"/></g><g transform="translate(16.547 121.023)"><g clip-path="url(#N)" transform="translate(325 .024)"><polygon fill="url(#O)" points="0 0 30.251 0 30.251 31.187 0 31.187 0 0"/></g><g clip-path="url(#P)" transform="translate(371.407)"><polygon fill="url(#Q)" points="0 0 30.263 0 30.263 31.211 0 31.211 0 0"/></g><g clip-path="url(#R)" transform="translate(417.839)"><polygon fill="url(#S)" points="0 0 30.263 0 30.263 31.211 0 31.211 0 0"/></g><g clip-path="url(#T)" transform="translate(464.27 .024)"><polygon fill="url(#U)" points="0 0 30.251 0 30.251 31.187 0 31.187 0 0"/></g><g clip-path="url(#V)" transform="translate(510.702 .024)"><polygon fill="url(#O)" points="0 0 30.251 0 30.251 31.187 0 31.187 0 0"/></g></g><g clip-path="url(#W)" transform="translate(511.042 161.789)"><polygon fill="url(#X)" points="0 0 30.548 0 30.548 31.211 0 31.211 0 0"/></g></g><g opacity="25%" transform="translate(557.5)"><g transform="translate(16.547 121.023)"><g clip-path="url(#Y)"><polygon fill="url(#Z)" points="0 0 30.263 0 30.263 31.211 0 31.211 0 0"/></g><g clip-path="url(#aa)" transform="translate(46.42)"><polygon fill="url(#ab)" points="0 0 30.263 0 30.263 31.211 0 31.211 0 0"/></g><g clip-path="url(#ac)" transform="translate(92.864 .024)"><polygon fill="url(#ad)" points="0 0 30.251 0 30.251 31.187 0 31.187 0 0"/></g></g><g clip-path="url(#ae)" transform="translate(232.292 161.789)"><polygon fill="url(#af)" points="0 0 30.548 0 30.548 31.211 0 31.211 0 0"/></g><g clip-path="url(#ag)" transform="translate(185.197 161.789)"><polygon fill="url(#ah)" points="0 0 30.548 0 30.548 31.211 0 31.211 0 0"/></g><g clip-path="url(#ai)" transform="translate(138.739 161.789)"><polygon fill="url(#aj)" points="0 0 30.548 0 30.548 31.211 0 31.211 0 0"/></g><g clip-path="url(#ak)" transform="translate(92.28 161.789)"><polygon fill="url(#al)" points="0 0 30.548 0 30.548 31.211 0 31.211 0 0"/></g><g clip-path="url(#am)" transform="translate(45.822 161.789)"><polygon fill="url(#an)" points="0 0 30.548 0 30.548 31.211 0 31.211 0 0"/></g><g clip-path="url(#ao)" transform="translate(0 161.789)"><polygon fill="url(#ap)" points="0 0 30.548 0 30.548 31.211 0 31.211 0 0"/></g></g><g opacity="25%" transform="matrix(-1 0 0 1 1205.713 202.374)"><g clip-path="url(#aq)" transform="translate(511.042)"><polygon fill="url(#ar)" points="0 0 30.548 0 30.548 31.211 0 31.211 0 0"/></g><g clip-path="url(#as)" transform="translate(463.31)"><polygon fill="url(#at)" points="0 0 30.548 0 30.548 31.211 0 31.211 0 0"/></g><g clip-path="url(#au)" transform="translate(418.125)"><polygon fill="url(#av)" points="0 0 30.548 0 30.548 31.211 0 31.211 0 0"/></g></g></g></g></svg>