<svg xmlns="http://www.w3.org/2000/svg" width="140" height="142"><path fill="#124fa6" fill-rule="evenodd" d="M12.533 0C5.623 0 0 5.568 0 12.414v117.172c0 6.845 5.623 12.412 12.533 12.412l.001.002h51.403c6.91 0 12.534-5.567 12.534-12.414v-8.393h-4.568v8.395c0 4.348-3.572 7.886-7.963 7.886H12.535c-4.39 0-7.962-3.536-7.962-7.886V12.416c0-4.349 3.57-7.887 7.961-7.887H25.03a2.273 2.273 0 002.278 2.122h21.86a2.274 2.274 0 002.28-2.122H63.94c4.39 0 7.963 3.537 7.963 7.887v1.172h4.568v-1.174C76.47 5.568 70.848 0 63.938 0H12.533zm64.593 19.95l-8.89 25.819h8.188l1.37-4.705h7.52l1.37 4.705h8.61l-8.89-25.819h-9.278zm4.638 8.215l1.765 7.042H80l1.764-7.042zM45.882 19.95v25.82H58.43c6 0 9.805-2.688 9.805-7.321 0-2.972-2.34-5.624-5.414-6.048 2.305-.85 4.024-2.937 4.024-5.518 0-4.35-3.695-6.932-9.292-6.932h-11.67zm8.236 5.868h1.27c2.2 0 3.436.553 3.436 2.244 0 1.657-1.168 2.45-3.435 2.45h-1.271v-4.694zm0 9.389h2.606c2.114 0 3.276.724 3.276 2.243 0 1.553-.88 2.45-3.276 2.45h-2.606v-4.693zM22.353 19.95v25.82h8.607v-8.842h2.81c6.05 0 9.76-3.36 9.76-8.702 0-5.304-3.782-8.275-9.76-8.275H22.352zm8.235 5.868h1.807c1.883 0 2.9.624 2.9 2.31 0 1.578-.98 2.384-2.9 2.384h-1.807v-4.694zm70.454 34.518c0 4.296 2.326 6.336 6.944 7.803 3.091.967 4.063 1.432 4.063 2.685 0 .895-.868 1.433-2.083 1.433-2.188 0-4.237-.896-6.598-2.829L100 74.978c2.361 2.11 5.938 3.65 10.07 3.65 6.11 0 9.93-3.508 9.93-8.735 0-4.904-2.5-6.73-7.084-8.09-3.333-1.002-3.923-1.504-3.923-2.327 0-.752.59-1.467 2.188-1.467 1.874 0 3.472.68 5.208 1.968l3.333-5.691c-1.7-1.397-4.93-2.65-8.229-2.65-6.146 0-10.451 3.043-10.451 8.7zm22.487-7.526v25.818H140v-6.507h-8.019v-3.148h6.43v-6.437h-6.43v-3.218h7.658V52.81h-16.11zm-45.882 0v25.818h8.36v-9.16l4.747 9.16H100l-6.164-10.68c2.586-1.132 4.393-3.75 4.393-7.18 0-5.164-3.65-7.958-9.777-7.958H77.647zm8.235 5.868h1.48c2.087 0 3.226.603 3.226 2.313 0 1.576-1.062 2.38-3.226 2.38h-1.48v-4.693zM66.374 52.81v15.243c0 2.872-1.535 4.691-4.021 4.691-2.486 0-4.02-1.819-4.02-4.691V52.81h-8.921v14.333c0 8.876 5.557 12.659 12.94 12.659 7.385 0 12.942-3.783 12.942-12.659V52.81h-8.92zm-27.527 0v11.07l-9.033-11.07h-7.461v25.818h8.21V66.71l9.747 11.918h6.749V52.81h-8.212zm68.342 32.86l-5.685 7.533v-7.534H92.94v25.819h8.563v-8.064l1.088-1.308 5.229 9.372h9.826l-9.125-15.42 8.668-10.399h-9.999zm-35.424 0v25.818h16.47v-6.579h-8.323v-19.24h-8.147zm-21.697 0l-8.892 25.818h8.189l1.37-4.704h7.52l1.37 4.704h8.61l-8.89-25.819h-9.277zm4.638 8.214l1.765 7.042h-3.53l1.765-7.042zm-33.53-8.215v6.578h5.21v19.24h8.405v-19.24H40V85.67H21.176zm5.767 37.554c-1.235 0-2.237 1.05-2.237 2.346 0 1.297 1 2.346 2.237 2.348H48.35c1.235 0 2.238-1.051 2.238-2.348 0-1.295-1.001-2.346-2.238-2.346H26.943z"/></svg>
