<!--?xml version="1.0" encoding="utf-8"?-->
<!-- Generator: Adobe Illustrator 24.1.0, SVG Export Plug-In . SVG Version: 6.00 Build 0)  -->
<svg version="1.1" id="Layer_1" xmlns="http://www.w3.org/2000/svg" xmlns:xlink="http://www.w3.org/1999/xlink" x="0px" y="0px" viewBox="0 0 600 230.5" style="enable-background:new 0 0 600 230.5;" xml:space="preserve">
<style type="text/css">
	.st0{fill:#2C2C2C;}
	.st1{fill:#1853A3;}
	.st2{fill:#CF1E56;}
</style>
<path class="st0" d="M16.4,208.9h-5.7v20h-11v-50.4h16.7c11.2,0,18.4,5.4,18.4,14.8S27.8,208.9,16.4,208.9z M16.4,187.9h-5.7v11.7
	h5.7c5,0,7.4-1.9,7.4-6S21.3,187.9,16.4,187.9L16.4,187.9z"></path>
<path class="st0" d="M48.2,229.7c-4.6,0-9.6-1.1-12.8-3.4l3.4-6.8c2.3,1.5,5,2.4,7.8,2.6c2.3,0,3.4-0.7,3.4-1.7
	c0-1.6-1.9-2.3-4.2-3.2c-4-1.5-9.5-3.3-9.5-9.9c0-5.9,5.1-9.1,12.4-9.1c3.8-0.1,7.6,0.8,10.8,2.8l-3,6.6c-2.3-1.3-4.9-2-7.6-1.9
	c-1.7,0-3.2,0.3-3.2,1.6c0,1,2.4,1.8,5.3,2.9c4.3,1.6,9.7,4.1,9.7,10C60.7,227.1,54.7,229.7,48.2,229.7z"></path>
<path class="st0" d="M80.8,229.7c-8.7,0-16.7-4.6-16.7-15.9c0-9.9,6.6-15.4,15-15.4c9.4,0,15.8,6.6,15.8,17.5H74.2
	c0.3,3.4,2.5,6.3,6.7,6.3c4.6,0,7.4-1,9.9-3.2l4.6,5.8C91.3,228.2,86.1,229.9,80.8,229.7z M79,205.2c-3,0-4.2,2.1-4.8,5H84
	C83.8,207.2,81.8,205.2,79,205.2z"></path>
<path class="st0" d="M120.2,228.9v-3.1c-2,2.6-5.2,4.1-8.6,3.9c-8,0-11.2-5.6-11.2-12.7v-17.9h10.7v15.3c0,4,1,6.3,4.2,6.3
	c3.1,0,4.9-2.3,4.9-5.9v-15.7h10.7v29.7L120.2,228.9z"></path>
<path class="st0" d="M159,228.9v-3c-1.6,2.4-5.4,3.9-9,3.9c-8.4,0-13.9-7.3-13.9-15.6c0-8.1,5.6-15.7,13.9-15.7c3.6,0,7.3,1.5,9,3.9
	v-23.7h10.7v50.4H159z M152.9,207.1c-3.5,0-6.1,2.8-6.1,6.8s2.6,7,6.1,7c3.7,0,6.1-3,6.1-7S156.5,207.1,152.9,207.1L152.9,207.1z"></path>
<path class="st0" d="M190.9,229.7c-8.7,0.2-15.9-6.6-16.1-15.3c-0.2-8.7,6.6-15.9,15.3-16.1c0.3,0,0.5,0,0.8,0
	c8.7,0,16.1,6.6,16.1,15.6C206.8,222.7,199.7,229.7,190.9,229.7z M190.8,206.8c-3.6,0-5.6,3.8-5.6,7.2s1.9,7.2,5.6,7.2
	s5.6-3.9,5.6-7.3S194.7,206.8,190.8,206.8L190.8,206.8z"></path>
<path class="st0" d="M231.8,229.7c-3.6,0-7.3-1.5-9-3.9v3h-10.6v-50.3h10.7v23.7c1.6-2.4,5.4-3.9,9-3.9c8.4,0,13.9,7.6,13.9,15.7
	C245.7,222.4,240.1,229.7,231.8,229.7z M228.9,207.1c-3.6,0-6.1,2.8-6.1,6.8s2.4,7,6.1,7c3.5,0,6.1-3,6.1-7S232.4,207.1,228.9,207.1
	z"></path>
<path class="st0" d="M270.4,228.9v-3.1c-2,2.6-5.2,4.1-8.5,3.9c-8,0-11.2-5.6-11.2-12.7v-17.9h10.7v15.3c0,4,1,6.3,4.2,6.3
	c3.1,0,4.9-2.3,4.9-5.9v-15.7h10.7v29.7L270.4,228.9z"></path>
<path class="st0" d="M288,228.9v-50.4h10.7v50.4H288z"></path>
<path class="st0" d="M325.3,229.7c-3.6,0-7.3-1.5-9-3.9v3h-10.7v-50.3h10.7v23.7c1.7-2.4,5.4-3.9,9-3.9c8.3,0,13.9,7.6,13.9,15.7
	C339.2,222.4,333.6,229.7,325.3,229.7z M322.4,207.1c-3.6,0-6.1,2.8-6.1,6.8s2.4,7,6.1,7c3.5,0,6.1-3,6.1-7S326,207.1,322.4,207.1z"></path>
<path class="st0" d="M363.5,228.9v-2.3c-3.2,2.3-5.1,3.1-10.3,3.1c-5.7,0-10.8-3.6-10.8-9.2c0-9.2,11.4-11,21-11.4v-1
	c0-2.1-1.4-2.8-4.4-2.8c-3.7,0-7.3,0.9-10.6,2.6l-3.3-6.4c3.9-2.2,8.9-3,14.3-3c9.9,0,14.8,3.2,14.8,11.6V229L363.5,228.9z
	 M363.5,215.1c-4.5,0-9.7,1-9.7,4.3c0,1.7,1.7,2.8,3.5,2.8c2.3,0.1,4.5-0.6,6.2-2.1V215.1z"></path>
<path class="st0" d="M401.2,210.2c-1.3-1.2-3-1.9-4.8-1.9c-3.4,0-4.9,2.8-4.9,5.9v14.6h-10.7v-29.7h10.7v3.9
	c1.6-2.8,4.5-4.6,7.7-4.8c2.7-0.1,5.3,0.9,7.2,2.8L401.2,210.2z"></path>
<path class="st0" d="M458,228.9l-3.9-12.7h-15.4l-3.9,12.7h-11.7l18-50.4h10.6l18.3,50.4H458z M447.7,194.6c-0.5-1.6-1-3.6-1.1-4
	c-0.1,0.2-0.5,2.3-1,4l-3.8,12.3h9.7L447.7,194.6z"></path>
<path class="st0" d="M486.7,207.1v21.8H476v-21.8h-3.7v-7.9h3.7v-12.3c0-5.5,3-9.2,8.7-9.2h5.6v9h-1.7c-1.5,0-1.9,2.1-1.9,3.4v9.1
	h3.9v7.9L486.7,207.1z M506.4,207.1v21.8h-10.7v-21.8H492v-7.9h3.7v-12.3c0-5.5,3-9.2,8.7-9.2h5.6v9h-1.7c-1.5,0-1.9,2.1-1.9,3.4
	v9.1h3.9v7.9L506.4,207.1z"></path>
<path class="st0" d="M530.2,229.7c-8.7,0-16.7-4.6-16.7-15.9c0-9.9,6.6-15.4,15-15.4c9.5,0,15.9,6.7,15.9,17.5h-20.9
	c0.3,3.4,2.5,6.3,6.7,6.3c4.6,0,7.4-1,9.9-3.2l4.5,5.8C540.6,228.2,535.4,229.9,530.2,229.7z M528.3,205.2c-3,0-4.2,2.1-4.8,5h9.8
	C533.1,207.2,531.1,205.2,528.3,205.2z"></path>
<path class="st0" d="M564.6,229.7c-9.4,0-16.3-6.8-16.3-15.6c0-8.6,6.8-15.8,16.3-15.8c4.7-0.2,9.1,1.9,12.1,5.5l-6.1,5.7
	c-1.5-1.7-3.6-2.7-5.9-2.8c-3.8,0-6.4,3.1-6.4,7.3c0,3.6,2.5,7.2,6.4,7.2c2.8,0,4.2-1.1,5.8-3l7.2,5
	C574,227.8,570.4,229.7,564.6,229.7z"></path>
<path class="st0" d="M593.2,228.9c-6,0-9.9-4.6-9.9-10.9v-10.9h-3.7v-7.9h3.7v-12.3H594v12.3h5v7.9h-5v9c0,2.3,1.2,3.9,3.3,3.9h2.6
	v9L593.2,228.9z"></path>
<path class="st1" d="M49.2,95.8h-12v38.6h-37V21.6h49c25.6,0,41.9,13,41.9,36.2S75.2,95.8,49.2,95.8z M44.3,48.5h-7.4v19.8h7.4
	c7.9,0,11.9-3.4,11.9-10C56.2,51.1,52,48.5,44.3,48.5z"></path>
<path class="st1" d="M155.6,134.4h-53V21.6h49.3c23.6,0,39.2,11.3,39.2,30.3c-0.1,10.8-6.9,20.4-17,24.1c13.1,2,22.8,13.2,22.9,26.4
	C197,122.7,180.9,134.4,155.6,134.4z M143.5,46.8h-5.7v21h5.7c10.2,0,15.5-3.6,15.5-11S153.4,46.8,143.5,46.8z M149.2,88.2h-11.4v21
	h11.4c10.5,0,14.4-4,14.4-11C163.6,91.4,158.5,88.2,149.2,88.2z"></path>
<path class="st2" d="M315,134.6h-7.5l13-73.2h7.4L315,134.6z M331.5,41H324l2.7-14.6h7.5L331.5,41z"></path>
<path class="st2" d="M398.1,134.6h-7.5l8-45.6c2.4-13.7-3.5-23.2-17-23.2S356.1,78.6,354,89.7l-7.9,44.9h-7.5l13-73.2h7.5l-2.2,12
	c5.7-8.2,15.5-14.2,26.3-14.2c18.4,0,25.7,12.6,23,28.7L398.1,134.6z"></path>
<path class="st2" d="M466,8.3h-5.7c-4.7,0-8.2,2.4-9.7,10.4l-7.5,42.7h13.5l-1.3,6.6h-13.5l-17.5,99.3h-7.5L434.4,68h-12.8l1.3-6.6
	h12.8l7.7-44c2-11.3,9.3-16.1,17.7-16.1h6.2L466,8.3z"></path>
<path class="st2" d="M491.6,136.8c-19.4,0-34.1-13.3-34.1-32.7c0-25.2,19.9-44.9,43.8-44.9c19.4,0,34.1,13.3,34.1,32.7
	C535.4,117.1,515.5,136.8,491.6,136.8z M500.5,66.1c-20.1,0-35,16.6-35,36.9c0,14.6,9.7,26.8,26.8,26.8c20.1,0,35.1-16.6,35.1-36.9
	C527.3,78.4,517.7,66.1,500.5,66.1z"></path>
<path class="st1" d="M300.9,82.6l-21.1-61h-40.8l-39.1,112.8h36l6-20.6h33.1l6,20.6h9.7L300.9,82.6z M249.9,86.6l8.5-28.6l8.5,28.6
	H249.9z"></path>
</svg>