<svg width="20" height="20" viewBox="0 0 20 20" xmlns="http://www.w3.org/2000/svg">
  <path d="M13.846 8.462c0-1.483-.527-2.75-1.58-3.805-1.054-1.053-2.322-1.58-3.804-1.58-1.483 0-2.75.527-3.805 1.58-1.053 1.054-1.58 2.322-1.58 3.805 0 1.482.527 2.75 1.58 3.804 1.054 1.053 2.322 1.58 3.805 1.58 1.482 0 2.75-.527 3.804-1.58 1.053-1.054 1.58-2.322 1.58-3.804zm6.154 10c0 .416-.152.777-.457 1.08-.304.306-.665.458-1.08.458-.434 0-.795-.152-1.083-.457l-4.123-4.11c-1.434.993-3.033 1.49-4.795 1.49-1.146 0-2.242-.222-3.288-.667-1.045-.445-1.947-1.046-2.704-1.803-.757-.757-1.358-1.66-1.803-2.704C.222 10.702 0 9.606 0 8.46 0 7.316.222 6.22.667 5.174 1.112 4.13 1.713 3.227 2.47 2.47c.757-.757 1.66-1.358 2.704-1.803C6.22.222 7.316 0 8.462 0c1.145 0 2.24.222 3.287.667 1.044.445 1.946 1.046 2.703 1.803.757.757 1.358 1.66 1.803 2.704.445 1.046.667 2.142.667 3.288 0 1.762-.497 3.36-1.49 4.795l4.122 4.123c.297.296.445.657.445 1.082z" fill="#059877" fill-rule="evenodd"/>
</svg>
